<mxfile host="app.diagrams.net" agent="Mozilla/5.0 (Windows NT 10.0; Win64; x64) AppleWebKit/537.36 (KHTML, like Gecko) Chrome/138.0.0.0 Safari/537.36 OPR/122.0.0.0" version="28.2.7" pages="16">
  <diagram name="Página-1" id="m0iNGAVcRd1sLlAQbSgM">
    <mxGraphModel dx="2024" dy="834" grid="1" gridSize="10" guides="1" tooltips="1" connect="1" arrows="1" fold="1" page="1" pageScale="1" pageWidth="827" pageHeight="1169" math="0" shadow="0">
      <root>
        <mxCell id="0" />
        <mxCell id="1" parent="0" />
        <mxCell id="Zw271A-w4w9CjCsWtlhW-1" value="" style="rounded=0;whiteSpace=wrap;html=1;" vertex="1" parent="1">
          <mxGeometry x="80" y="90" width="120" height="60" as="geometry" />
        </mxCell>
        <mxCell id="Zw271A-w4w9CjCsWtlhW-2" value="" style="rounded=0;whiteSpace=wrap;html=1;" vertex="1" parent="1">
          <mxGeometry x="80" y="150" width="120" height="60" as="geometry" />
        </mxCell>
        <mxCell id="Zw271A-w4w9CjCsWtlhW-3" value="" style="rounded=0;whiteSpace=wrap;html=1;" vertex="1" parent="1">
          <mxGeometry x="80" y="210" width="120" height="60" as="geometry" />
        </mxCell>
        <mxCell id="Zw271A-w4w9CjCsWtlhW-4" value="" style="rounded=0;whiteSpace=wrap;html=1;" vertex="1" parent="1">
          <mxGeometry x="80" y="270" width="120" height="60" as="geometry" />
        </mxCell>
        <mxCell id="Zw271A-w4w9CjCsWtlhW-5" value="" style="rounded=0;whiteSpace=wrap;html=1;" vertex="1" parent="1">
          <mxGeometry x="80" y="330" width="120" height="60" as="geometry" />
        </mxCell>
        <mxCell id="Zw271A-w4w9CjCsWtlhW-6" value="47" style="rounded=0;whiteSpace=wrap;html=1;" vertex="1" parent="1">
          <mxGeometry x="80" y="390" width="120" height="60" as="geometry" />
        </mxCell>
        <mxCell id="Zw271A-w4w9CjCsWtlhW-7" value="" style="rounded=0;whiteSpace=wrap;html=1;" vertex="1" parent="1">
          <mxGeometry x="80" y="450" width="120" height="60" as="geometry" />
        </mxCell>
        <mxCell id="Zw271A-w4w9CjCsWtlhW-10" value="&lt;font style=&quot;font-size: 16px;&quot;&gt;Inserir&amp;nbsp;&lt;span style=&quot;color: rgb(51, 51, 51); font-family: -apple-system, BlinkMacSystemFont, &amp;quot;Segoe UI&amp;quot;, Roboto, &amp;quot;Helvetica Neue&amp;quot;, Arial, &amp;quot;Noto Sans&amp;quot;, &amp;quot;Liberation Sans&amp;quot;, sans-serif, &amp;quot;Apple Color Emoji&amp;quot;, &amp;quot;Segoe UI Emoji&amp;quot;, &amp;quot;Segoe UI Symbol&amp;quot;, &amp;quot;Noto Color Emoji&amp;quot;; text-align: left; background-color: rgb(255, 255, 255);&quot;&gt;47 51 27 17 19 15 81 8 4 37&lt;/span&gt;&lt;/font&gt;" style="text;html=1;whiteSpace=wrap;strokeColor=none;fillColor=none;align=center;verticalAlign=middle;rounded=0;" vertex="1" parent="1">
          <mxGeometry x="70" y="30" width="260" height="30" as="geometry" />
        </mxCell>
        <mxCell id="Zw271A-w4w9CjCsWtlhW-11" value="&lt;font style=&quot;font-size: 16px;&quot;&gt;Tamanho 7&lt;/font&gt;" style="text;html=1;whiteSpace=wrap;strokeColor=none;fillColor=none;align=center;verticalAlign=middle;rounded=0;" vertex="1" parent="1">
          <mxGeometry x="430" y="30" width="120" height="30" as="geometry" />
        </mxCell>
        <mxCell id="Zw271A-w4w9CjCsWtlhW-12" value="&lt;font style=&quot;font-size: 16px;&quot;&gt;0&lt;/font&gt;" style="text;html=1;whiteSpace=wrap;strokeColor=none;fillColor=none;align=center;verticalAlign=middle;rounded=0;" vertex="1" parent="1">
          <mxGeometry x="20" y="105" width="60" height="30" as="geometry" />
        </mxCell>
        <mxCell id="Zw271A-w4w9CjCsWtlhW-13" value="&lt;font style=&quot;font-size: 16px;&quot;&gt;1&lt;/font&gt;" style="text;html=1;whiteSpace=wrap;strokeColor=none;fillColor=none;align=center;verticalAlign=middle;rounded=0;" vertex="1" parent="1">
          <mxGeometry x="20" y="160" width="60" height="30" as="geometry" />
        </mxCell>
        <mxCell id="Zw271A-w4w9CjCsWtlhW-14" value="&lt;span style=&quot;font-size: 16px;&quot;&gt;2&lt;/span&gt;" style="text;html=1;whiteSpace=wrap;strokeColor=none;fillColor=none;align=center;verticalAlign=middle;rounded=0;" vertex="1" parent="1">
          <mxGeometry x="20" y="225" width="60" height="30" as="geometry" />
        </mxCell>
        <mxCell id="Zw271A-w4w9CjCsWtlhW-15" value="&lt;font style=&quot;font-size: 16px;&quot;&gt;3&lt;/font&gt;" style="text;html=1;whiteSpace=wrap;strokeColor=none;fillColor=none;align=center;verticalAlign=middle;rounded=0;" vertex="1" parent="1">
          <mxGeometry x="20" y="285" width="60" height="30" as="geometry" />
        </mxCell>
        <mxCell id="Zw271A-w4w9CjCsWtlhW-16" value="&lt;font style=&quot;font-size: 16px;&quot;&gt;4&lt;/font&gt;" style="text;html=1;whiteSpace=wrap;strokeColor=none;fillColor=none;align=center;verticalAlign=middle;rounded=0;" vertex="1" parent="1">
          <mxGeometry x="20" y="340" width="60" height="30" as="geometry" />
        </mxCell>
        <mxCell id="Zw271A-w4w9CjCsWtlhW-17" value="&lt;font style=&quot;font-size: 16px;&quot;&gt;5&lt;/font&gt;" style="text;html=1;whiteSpace=wrap;strokeColor=none;fillColor=none;align=center;verticalAlign=middle;rounded=0;" vertex="1" parent="1">
          <mxGeometry x="20" y="405" width="60" height="30" as="geometry" />
        </mxCell>
        <mxCell id="Zw271A-w4w9CjCsWtlhW-18" value="&lt;font style=&quot;font-size: 16px;&quot;&gt;6&lt;/font&gt;" style="text;html=1;whiteSpace=wrap;strokeColor=none;fillColor=none;align=center;verticalAlign=middle;rounded=0;" vertex="1" parent="1">
          <mxGeometry x="20" y="465" width="60" height="30" as="geometry" />
        </mxCell>
      </root>
    </mxGraphModel>
  </diagram>
  <diagram name="Cópia do Página-1" id="NY1oXFv-jiwthc7F2lzk">
    <mxGraphModel dx="2024" dy="834" grid="1" gridSize="10" guides="1" tooltips="1" connect="1" arrows="1" fold="1" page="1" pageScale="1" pageWidth="827" pageHeight="1169" math="0" shadow="0">
      <root>
        <mxCell id="KcoRksCMIFefVEr6nCrm-0" />
        <mxCell id="KcoRksCMIFefVEr6nCrm-1" parent="KcoRksCMIFefVEr6nCrm-0" />
        <mxCell id="KcoRksCMIFefVEr6nCrm-2" value="" style="rounded=0;whiteSpace=wrap;html=1;" vertex="1" parent="KcoRksCMIFefVEr6nCrm-1">
          <mxGeometry x="80" y="90" width="120" height="60" as="geometry" />
        </mxCell>
        <mxCell id="KcoRksCMIFefVEr6nCrm-3" value="" style="rounded=0;whiteSpace=wrap;html=1;" vertex="1" parent="KcoRksCMIFefVEr6nCrm-1">
          <mxGeometry x="80" y="150" width="120" height="60" as="geometry" />
        </mxCell>
        <mxCell id="KcoRksCMIFefVEr6nCrm-4" value="51" style="rounded=0;whiteSpace=wrap;html=1;" vertex="1" parent="KcoRksCMIFefVEr6nCrm-1">
          <mxGeometry x="80" y="210" width="120" height="60" as="geometry" />
        </mxCell>
        <mxCell id="KcoRksCMIFefVEr6nCrm-5" value="" style="rounded=0;whiteSpace=wrap;html=1;" vertex="1" parent="KcoRksCMIFefVEr6nCrm-1">
          <mxGeometry x="80" y="270" width="120" height="60" as="geometry" />
        </mxCell>
        <mxCell id="KcoRksCMIFefVEr6nCrm-6" value="" style="rounded=0;whiteSpace=wrap;html=1;" vertex="1" parent="KcoRksCMIFefVEr6nCrm-1">
          <mxGeometry x="80" y="330" width="120" height="60" as="geometry" />
        </mxCell>
        <mxCell id="KcoRksCMIFefVEr6nCrm-7" value="47" style="rounded=0;whiteSpace=wrap;html=1;" vertex="1" parent="KcoRksCMIFefVEr6nCrm-1">
          <mxGeometry x="80" y="390" width="120" height="60" as="geometry" />
        </mxCell>
        <mxCell id="KcoRksCMIFefVEr6nCrm-8" value="" style="rounded=0;whiteSpace=wrap;html=1;" vertex="1" parent="KcoRksCMIFefVEr6nCrm-1">
          <mxGeometry x="80" y="450" width="120" height="60" as="geometry" />
        </mxCell>
        <mxCell id="KcoRksCMIFefVEr6nCrm-9" value="&lt;font style=&quot;font-size: 16px;&quot;&gt;Inserir&amp;nbsp;&lt;span style=&quot;color: rgb(51, 51, 51); font-family: -apple-system, BlinkMacSystemFont, &amp;quot;Segoe UI&amp;quot;, Roboto, &amp;quot;Helvetica Neue&amp;quot;, Arial, &amp;quot;Noto Sans&amp;quot;, &amp;quot;Liberation Sans&amp;quot;, sans-serif, &amp;quot;Apple Color Emoji&amp;quot;, &amp;quot;Segoe UI Emoji&amp;quot;, &amp;quot;Segoe UI Symbol&amp;quot;, &amp;quot;Noto Color Emoji&amp;quot;; text-align: left; background-color: rgb(255, 255, 255);&quot;&gt;&amp;nbsp;51 27 17 19 15 81 8 4 37&lt;/span&gt;&lt;/font&gt;" style="text;html=1;whiteSpace=wrap;strokeColor=none;fillColor=none;align=center;verticalAlign=middle;rounded=0;" vertex="1" parent="KcoRksCMIFefVEr6nCrm-1">
          <mxGeometry x="70" y="30" width="260" height="30" as="geometry" />
        </mxCell>
        <mxCell id="KcoRksCMIFefVEr6nCrm-10" value="&lt;font style=&quot;font-size: 16px;&quot;&gt;Tamanho 7&lt;/font&gt;" style="text;html=1;whiteSpace=wrap;strokeColor=none;fillColor=none;align=center;verticalAlign=middle;rounded=0;" vertex="1" parent="KcoRksCMIFefVEr6nCrm-1">
          <mxGeometry x="430" y="30" width="120" height="30" as="geometry" />
        </mxCell>
        <mxCell id="KcoRksCMIFefVEr6nCrm-11" value="&lt;font style=&quot;font-size: 16px;&quot;&gt;0&lt;/font&gt;" style="text;html=1;whiteSpace=wrap;strokeColor=none;fillColor=none;align=center;verticalAlign=middle;rounded=0;" vertex="1" parent="KcoRksCMIFefVEr6nCrm-1">
          <mxGeometry x="20" y="105" width="60" height="30" as="geometry" />
        </mxCell>
        <mxCell id="KcoRksCMIFefVEr6nCrm-12" value="&lt;font style=&quot;font-size: 16px;&quot;&gt;1&lt;/font&gt;" style="text;html=1;whiteSpace=wrap;strokeColor=none;fillColor=none;align=center;verticalAlign=middle;rounded=0;" vertex="1" parent="KcoRksCMIFefVEr6nCrm-1">
          <mxGeometry x="20" y="160" width="60" height="30" as="geometry" />
        </mxCell>
        <mxCell id="KcoRksCMIFefVEr6nCrm-13" value="&lt;span style=&quot;font-size: 16px;&quot;&gt;2&lt;/span&gt;" style="text;html=1;whiteSpace=wrap;strokeColor=none;fillColor=none;align=center;verticalAlign=middle;rounded=0;" vertex="1" parent="KcoRksCMIFefVEr6nCrm-1">
          <mxGeometry x="20" y="225" width="60" height="30" as="geometry" />
        </mxCell>
        <mxCell id="KcoRksCMIFefVEr6nCrm-14" value="&lt;font style=&quot;font-size: 16px;&quot;&gt;3&lt;/font&gt;" style="text;html=1;whiteSpace=wrap;strokeColor=none;fillColor=none;align=center;verticalAlign=middle;rounded=0;" vertex="1" parent="KcoRksCMIFefVEr6nCrm-1">
          <mxGeometry x="20" y="285" width="60" height="30" as="geometry" />
        </mxCell>
        <mxCell id="KcoRksCMIFefVEr6nCrm-15" value="&lt;font style=&quot;font-size: 16px;&quot;&gt;4&lt;/font&gt;" style="text;html=1;whiteSpace=wrap;strokeColor=none;fillColor=none;align=center;verticalAlign=middle;rounded=0;" vertex="1" parent="KcoRksCMIFefVEr6nCrm-1">
          <mxGeometry x="20" y="340" width="60" height="30" as="geometry" />
        </mxCell>
        <mxCell id="KcoRksCMIFefVEr6nCrm-16" value="&lt;font style=&quot;font-size: 16px;&quot;&gt;5&lt;/font&gt;" style="text;html=1;whiteSpace=wrap;strokeColor=none;fillColor=none;align=center;verticalAlign=middle;rounded=0;" vertex="1" parent="KcoRksCMIFefVEr6nCrm-1">
          <mxGeometry x="20" y="405" width="60" height="30" as="geometry" />
        </mxCell>
        <mxCell id="KcoRksCMIFefVEr6nCrm-17" value="&lt;font style=&quot;font-size: 16px;&quot;&gt;6&lt;/font&gt;" style="text;html=1;whiteSpace=wrap;strokeColor=none;fillColor=none;align=center;verticalAlign=middle;rounded=0;" vertex="1" parent="KcoRksCMIFefVEr6nCrm-1">
          <mxGeometry x="20" y="465" width="60" height="30" as="geometry" />
        </mxCell>
      </root>
    </mxGraphModel>
  </diagram>
  <diagram name="Cópia do Cópia do Página-1" id="pZb3pRiZaH_DK2j4BtAc">
    <mxGraphModel dx="2024" dy="834" grid="1" gridSize="10" guides="1" tooltips="1" connect="1" arrows="1" fold="1" page="1" pageScale="1" pageWidth="827" pageHeight="1169" math="0" shadow="0">
      <root>
        <mxCell id="u4uU_F1bAq9amgFYsN9v-0" />
        <mxCell id="u4uU_F1bAq9amgFYsN9v-1" parent="u4uU_F1bAq9amgFYsN9v-0" />
        <mxCell id="u4uU_F1bAq9amgFYsN9v-2" value="" style="rounded=0;whiteSpace=wrap;html=1;" vertex="1" parent="u4uU_F1bAq9amgFYsN9v-1">
          <mxGeometry x="80" y="90" width="120" height="60" as="geometry" />
        </mxCell>
        <mxCell id="u4uU_F1bAq9amgFYsN9v-3" value="" style="rounded=0;whiteSpace=wrap;html=1;" vertex="1" parent="u4uU_F1bAq9amgFYsN9v-1">
          <mxGeometry x="80" y="150" width="120" height="60" as="geometry" />
        </mxCell>
        <mxCell id="u4uU_F1bAq9amgFYsN9v-4" value="51" style="rounded=0;whiteSpace=wrap;html=1;" vertex="1" parent="u4uU_F1bAq9amgFYsN9v-1">
          <mxGeometry x="80" y="210" width="120" height="60" as="geometry" />
        </mxCell>
        <mxCell id="u4uU_F1bAq9amgFYsN9v-5" value="" style="rounded=0;whiteSpace=wrap;html=1;" vertex="1" parent="u4uU_F1bAq9amgFYsN9v-1">
          <mxGeometry x="80" y="270" width="120" height="60" as="geometry" />
        </mxCell>
        <mxCell id="u4uU_F1bAq9amgFYsN9v-6" value="" style="rounded=0;whiteSpace=wrap;html=1;" vertex="1" parent="u4uU_F1bAq9amgFYsN9v-1">
          <mxGeometry x="80" y="330" width="120" height="60" as="geometry" />
        </mxCell>
        <mxCell id="u4uU_F1bAq9amgFYsN9v-7" value="47" style="rounded=0;whiteSpace=wrap;html=1;" vertex="1" parent="u4uU_F1bAq9amgFYsN9v-1">
          <mxGeometry x="80" y="390" width="120" height="60" as="geometry" />
        </mxCell>
        <mxCell id="u4uU_F1bAq9amgFYsN9v-8" value="27" style="rounded=0;whiteSpace=wrap;html=1;" vertex="1" parent="u4uU_F1bAq9amgFYsN9v-1">
          <mxGeometry x="80" y="450" width="120" height="60" as="geometry" />
        </mxCell>
        <mxCell id="u4uU_F1bAq9amgFYsN9v-9" value="&lt;font style=&quot;font-size: 16px;&quot;&gt;Inserir&amp;nbsp;&lt;span style=&quot;color: rgb(51, 51, 51); font-family: -apple-system, BlinkMacSystemFont, &amp;quot;Segoe UI&amp;quot;, Roboto, &amp;quot;Helvetica Neue&amp;quot;, Arial, &amp;quot;Noto Sans&amp;quot;, &amp;quot;Liberation Sans&amp;quot;, sans-serif, &amp;quot;Apple Color Emoji&amp;quot;, &amp;quot;Segoe UI Emoji&amp;quot;, &amp;quot;Segoe UI Symbol&amp;quot;, &amp;quot;Noto Color Emoji&amp;quot;; text-align: left; background-color: rgb(255, 255, 255);&quot;&gt;&amp;nbsp;27 17 19 15 81 8 4 37&lt;/span&gt;&lt;/font&gt;" style="text;html=1;whiteSpace=wrap;strokeColor=none;fillColor=none;align=center;verticalAlign=middle;rounded=0;" vertex="1" parent="u4uU_F1bAq9amgFYsN9v-1">
          <mxGeometry x="70" y="30" width="260" height="30" as="geometry" />
        </mxCell>
        <mxCell id="u4uU_F1bAq9amgFYsN9v-10" value="&lt;font style=&quot;font-size: 16px;&quot;&gt;Tamanho 7&lt;/font&gt;" style="text;html=1;whiteSpace=wrap;strokeColor=none;fillColor=none;align=center;verticalAlign=middle;rounded=0;" vertex="1" parent="u4uU_F1bAq9amgFYsN9v-1">
          <mxGeometry x="430" y="30" width="120" height="30" as="geometry" />
        </mxCell>
        <mxCell id="u4uU_F1bAq9amgFYsN9v-11" value="&lt;font style=&quot;font-size: 16px;&quot;&gt;0&lt;/font&gt;" style="text;html=1;whiteSpace=wrap;strokeColor=none;fillColor=none;align=center;verticalAlign=middle;rounded=0;" vertex="1" parent="u4uU_F1bAq9amgFYsN9v-1">
          <mxGeometry x="20" y="105" width="60" height="30" as="geometry" />
        </mxCell>
        <mxCell id="u4uU_F1bAq9amgFYsN9v-12" value="&lt;font style=&quot;font-size: 16px;&quot;&gt;1&lt;/font&gt;" style="text;html=1;whiteSpace=wrap;strokeColor=none;fillColor=none;align=center;verticalAlign=middle;rounded=0;" vertex="1" parent="u4uU_F1bAq9amgFYsN9v-1">
          <mxGeometry x="20" y="160" width="60" height="30" as="geometry" />
        </mxCell>
        <mxCell id="u4uU_F1bAq9amgFYsN9v-13" value="&lt;span style=&quot;font-size: 16px;&quot;&gt;2&lt;/span&gt;" style="text;html=1;whiteSpace=wrap;strokeColor=none;fillColor=none;align=center;verticalAlign=middle;rounded=0;" vertex="1" parent="u4uU_F1bAq9amgFYsN9v-1">
          <mxGeometry x="20" y="225" width="60" height="30" as="geometry" />
        </mxCell>
        <mxCell id="u4uU_F1bAq9amgFYsN9v-14" value="&lt;font style=&quot;font-size: 16px;&quot;&gt;3&lt;/font&gt;" style="text;html=1;whiteSpace=wrap;strokeColor=none;fillColor=none;align=center;verticalAlign=middle;rounded=0;" vertex="1" parent="u4uU_F1bAq9amgFYsN9v-1">
          <mxGeometry x="20" y="285" width="60" height="30" as="geometry" />
        </mxCell>
        <mxCell id="u4uU_F1bAq9amgFYsN9v-15" value="&lt;font style=&quot;font-size: 16px;&quot;&gt;4&lt;/font&gt;" style="text;html=1;whiteSpace=wrap;strokeColor=none;fillColor=none;align=center;verticalAlign=middle;rounded=0;" vertex="1" parent="u4uU_F1bAq9amgFYsN9v-1">
          <mxGeometry x="20" y="340" width="60" height="30" as="geometry" />
        </mxCell>
        <mxCell id="u4uU_F1bAq9amgFYsN9v-16" value="&lt;font style=&quot;font-size: 16px;&quot;&gt;5&lt;/font&gt;" style="text;html=1;whiteSpace=wrap;strokeColor=none;fillColor=none;align=center;verticalAlign=middle;rounded=0;" vertex="1" parent="u4uU_F1bAq9amgFYsN9v-1">
          <mxGeometry x="20" y="405" width="60" height="30" as="geometry" />
        </mxCell>
        <mxCell id="u4uU_F1bAq9amgFYsN9v-17" value="&lt;font style=&quot;font-size: 16px;&quot;&gt;6&lt;/font&gt;" style="text;html=1;whiteSpace=wrap;strokeColor=none;fillColor=none;align=center;verticalAlign=middle;rounded=0;" vertex="1" parent="u4uU_F1bAq9amgFYsN9v-1">
          <mxGeometry x="20" y="465" width="60" height="30" as="geometry" />
        </mxCell>
      </root>
    </mxGraphModel>
  </diagram>
  <diagram name="Cópia do Cópia do Cópia do Página-1" id="BVeP10OXjzyvudvxhwG2">
    <mxGraphModel dx="2024" dy="834" grid="1" gridSize="10" guides="1" tooltips="1" connect="1" arrows="1" fold="1" page="1" pageScale="1" pageWidth="827" pageHeight="1169" math="0" shadow="0">
      <root>
        <mxCell id="rhk4DKwYuItVppTGf4OR-0" />
        <mxCell id="rhk4DKwYuItVppTGf4OR-1" parent="rhk4DKwYuItVppTGf4OR-0" />
        <mxCell id="rhk4DKwYuItVppTGf4OR-2" value="" style="rounded=0;whiteSpace=wrap;html=1;" vertex="1" parent="rhk4DKwYuItVppTGf4OR-1">
          <mxGeometry x="80" y="90" width="120" height="60" as="geometry" />
        </mxCell>
        <mxCell id="rhk4DKwYuItVppTGf4OR-3" value="" style="rounded=0;whiteSpace=wrap;html=1;" vertex="1" parent="rhk4DKwYuItVppTGf4OR-1">
          <mxGeometry x="80" y="150" width="120" height="60" as="geometry" />
        </mxCell>
        <mxCell id="rhk4DKwYuItVppTGf4OR-4" value="51" style="rounded=0;whiteSpace=wrap;html=1;" vertex="1" parent="rhk4DKwYuItVppTGf4OR-1">
          <mxGeometry x="80" y="210" width="120" height="60" as="geometry" />
        </mxCell>
        <mxCell id="rhk4DKwYuItVppTGf4OR-5" value="17" style="rounded=0;whiteSpace=wrap;html=1;" vertex="1" parent="rhk4DKwYuItVppTGf4OR-1">
          <mxGeometry x="80" y="270" width="120" height="60" as="geometry" />
        </mxCell>
        <mxCell id="rhk4DKwYuItVppTGf4OR-6" value="" style="rounded=0;whiteSpace=wrap;html=1;" vertex="1" parent="rhk4DKwYuItVppTGf4OR-1">
          <mxGeometry x="80" y="330" width="120" height="60" as="geometry" />
        </mxCell>
        <mxCell id="rhk4DKwYuItVppTGf4OR-7" value="47" style="rounded=0;whiteSpace=wrap;html=1;" vertex="1" parent="rhk4DKwYuItVppTGf4OR-1">
          <mxGeometry x="80" y="390" width="120" height="60" as="geometry" />
        </mxCell>
        <mxCell id="rhk4DKwYuItVppTGf4OR-8" value="27" style="rounded=0;whiteSpace=wrap;html=1;" vertex="1" parent="rhk4DKwYuItVppTGf4OR-1">
          <mxGeometry x="80" y="450" width="120" height="60" as="geometry" />
        </mxCell>
        <mxCell id="rhk4DKwYuItVppTGf4OR-9" value="&lt;font style=&quot;font-size: 16px;&quot;&gt;Inserir&lt;span style=&quot;color: rgb(51, 51, 51); font-family: -apple-system, BlinkMacSystemFont, &amp;quot;Segoe UI&amp;quot;, Roboto, &amp;quot;Helvetica Neue&amp;quot;, Arial, &amp;quot;Noto Sans&amp;quot;, &amp;quot;Liberation Sans&amp;quot;, sans-serif, &amp;quot;Apple Color Emoji&amp;quot;, &amp;quot;Segoe UI Emoji&amp;quot;, &amp;quot;Segoe UI Symbol&amp;quot;, &amp;quot;Noto Color Emoji&amp;quot;; text-align: left; background-color: rgb(255, 255, 255);&quot;&gt;&amp;nbsp;17 19 15 81 8 4 37&lt;/span&gt;&lt;/font&gt;" style="text;html=1;whiteSpace=wrap;strokeColor=none;fillColor=none;align=center;verticalAlign=middle;rounded=0;" vertex="1" parent="rhk4DKwYuItVppTGf4OR-1">
          <mxGeometry x="70" y="30" width="260" height="30" as="geometry" />
        </mxCell>
        <mxCell id="rhk4DKwYuItVppTGf4OR-10" value="&lt;font style=&quot;font-size: 16px;&quot;&gt;Tamanho 7&lt;/font&gt;" style="text;html=1;whiteSpace=wrap;strokeColor=none;fillColor=none;align=center;verticalAlign=middle;rounded=0;" vertex="1" parent="rhk4DKwYuItVppTGf4OR-1">
          <mxGeometry x="430" y="30" width="120" height="30" as="geometry" />
        </mxCell>
        <mxCell id="rhk4DKwYuItVppTGf4OR-11" value="&lt;font style=&quot;font-size: 16px;&quot;&gt;0&lt;/font&gt;" style="text;html=1;whiteSpace=wrap;strokeColor=none;fillColor=none;align=center;verticalAlign=middle;rounded=0;" vertex="1" parent="rhk4DKwYuItVppTGf4OR-1">
          <mxGeometry x="20" y="105" width="60" height="30" as="geometry" />
        </mxCell>
        <mxCell id="rhk4DKwYuItVppTGf4OR-12" value="&lt;font style=&quot;font-size: 16px;&quot;&gt;1&lt;/font&gt;" style="text;html=1;whiteSpace=wrap;strokeColor=none;fillColor=none;align=center;verticalAlign=middle;rounded=0;" vertex="1" parent="rhk4DKwYuItVppTGf4OR-1">
          <mxGeometry x="20" y="160" width="60" height="30" as="geometry" />
        </mxCell>
        <mxCell id="rhk4DKwYuItVppTGf4OR-13" value="&lt;span style=&quot;font-size: 16px;&quot;&gt;2&lt;/span&gt;" style="text;html=1;whiteSpace=wrap;strokeColor=none;fillColor=none;align=center;verticalAlign=middle;rounded=0;" vertex="1" parent="rhk4DKwYuItVppTGf4OR-1">
          <mxGeometry x="20" y="225" width="60" height="30" as="geometry" />
        </mxCell>
        <mxCell id="rhk4DKwYuItVppTGf4OR-14" value="&lt;font style=&quot;font-size: 16px;&quot;&gt;3&lt;/font&gt;" style="text;html=1;whiteSpace=wrap;strokeColor=none;fillColor=none;align=center;verticalAlign=middle;rounded=0;" vertex="1" parent="rhk4DKwYuItVppTGf4OR-1">
          <mxGeometry x="20" y="285" width="60" height="30" as="geometry" />
        </mxCell>
        <mxCell id="rhk4DKwYuItVppTGf4OR-15" value="&lt;font style=&quot;font-size: 16px;&quot;&gt;4&lt;/font&gt;" style="text;html=1;whiteSpace=wrap;strokeColor=none;fillColor=none;align=center;verticalAlign=middle;rounded=0;" vertex="1" parent="rhk4DKwYuItVppTGf4OR-1">
          <mxGeometry x="20" y="340" width="60" height="30" as="geometry" />
        </mxCell>
        <mxCell id="rhk4DKwYuItVppTGf4OR-16" value="&lt;font style=&quot;font-size: 16px;&quot;&gt;5&lt;/font&gt;" style="text;html=1;whiteSpace=wrap;strokeColor=none;fillColor=none;align=center;verticalAlign=middle;rounded=0;" vertex="1" parent="rhk4DKwYuItVppTGf4OR-1">
          <mxGeometry x="20" y="405" width="60" height="30" as="geometry" />
        </mxCell>
        <mxCell id="rhk4DKwYuItVppTGf4OR-17" value="&lt;font style=&quot;font-size: 16px;&quot;&gt;6&lt;/font&gt;" style="text;html=1;whiteSpace=wrap;strokeColor=none;fillColor=none;align=center;verticalAlign=middle;rounded=0;" vertex="1" parent="rhk4DKwYuItVppTGf4OR-1">
          <mxGeometry x="20" y="465" width="60" height="30" as="geometry" />
        </mxCell>
      </root>
    </mxGraphModel>
  </diagram>
  <diagram name="Cópia do Cópia do Cópia do Cópia do Página-1" id="R1Ey8hNtZtaVdyufEBd_">
    <mxGraphModel dx="2024" dy="834" grid="1" gridSize="10" guides="1" tooltips="1" connect="1" arrows="1" fold="1" page="1" pageScale="1" pageWidth="827" pageHeight="1169" math="0" shadow="0">
      <root>
        <mxCell id="ECZmX-a7Yze5Ti-O_X9D-0" />
        <mxCell id="ECZmX-a7Yze5Ti-O_X9D-1" parent="ECZmX-a7Yze5Ti-O_X9D-0" />
        <mxCell id="ECZmX-a7Yze5Ti-O_X9D-2" value="" style="rounded=0;whiteSpace=wrap;html=1;" vertex="1" parent="ECZmX-a7Yze5Ti-O_X9D-1">
          <mxGeometry x="80" y="90" width="120" height="60" as="geometry" />
        </mxCell>
        <mxCell id="ECZmX-a7Yze5Ti-O_X9D-3" value="" style="rounded=0;whiteSpace=wrap;html=1;" vertex="1" parent="ECZmX-a7Yze5Ti-O_X9D-1">
          <mxGeometry x="80" y="150" width="120" height="60" as="geometry" />
        </mxCell>
        <mxCell id="ECZmX-a7Yze5Ti-O_X9D-4" value="51" style="rounded=0;whiteSpace=wrap;html=1;" vertex="1" parent="ECZmX-a7Yze5Ti-O_X9D-1">
          <mxGeometry x="80" y="210" width="120" height="60" as="geometry" />
        </mxCell>
        <mxCell id="ECZmX-a7Yze5Ti-O_X9D-5" value="17" style="rounded=0;whiteSpace=wrap;html=1;" vertex="1" parent="ECZmX-a7Yze5Ti-O_X9D-1">
          <mxGeometry x="80" y="270" width="120" height="60" as="geometry" />
        </mxCell>
        <mxCell id="ECZmX-a7Yze5Ti-O_X9D-6" value="" style="rounded=0;whiteSpace=wrap;html=1;" vertex="1" parent="ECZmX-a7Yze5Ti-O_X9D-1">
          <mxGeometry x="80" y="330" width="120" height="60" as="geometry" />
        </mxCell>
        <mxCell id="sCX2OGmo0J2VKZ2BqCTp-0" style="edgeStyle=orthogonalEdgeStyle;rounded=0;orthogonalLoop=1;jettySize=auto;html=1;entryX=0;entryY=0.5;entryDx=0;entryDy=0;" edge="1" parent="ECZmX-a7Yze5Ti-O_X9D-1" source="ECZmX-a7Yze5Ti-O_X9D-7" target="sCX2OGmo0J2VKZ2BqCTp-1">
          <mxGeometry relative="1" as="geometry">
            <mxPoint x="280" y="420" as="targetPoint" />
          </mxGeometry>
        </mxCell>
        <mxCell id="ECZmX-a7Yze5Ti-O_X9D-7" value="47" style="rounded=0;whiteSpace=wrap;html=1;" vertex="1" parent="ECZmX-a7Yze5Ti-O_X9D-1">
          <mxGeometry x="80" y="390" width="120" height="60" as="geometry" />
        </mxCell>
        <mxCell id="ECZmX-a7Yze5Ti-O_X9D-8" value="27" style="rounded=0;whiteSpace=wrap;html=1;" vertex="1" parent="ECZmX-a7Yze5Ti-O_X9D-1">
          <mxGeometry x="80" y="450" width="120" height="60" as="geometry" />
        </mxCell>
        <mxCell id="ECZmX-a7Yze5Ti-O_X9D-9" value="&lt;font style=&quot;font-size: 16px;&quot;&gt;Inserir&lt;span style=&quot;color: rgb(51, 51, 51); font-family: -apple-system, BlinkMacSystemFont, &amp;quot;Segoe UI&amp;quot;, Roboto, &amp;quot;Helvetica Neue&amp;quot;, Arial, &amp;quot;Noto Sans&amp;quot;, &amp;quot;Liberation Sans&amp;quot;, sans-serif, &amp;quot;Apple Color Emoji&amp;quot;, &amp;quot;Segoe UI Emoji&amp;quot;, &amp;quot;Segoe UI Symbol&amp;quot;, &amp;quot;Noto Color Emoji&amp;quot;; text-align: left; background-color: rgb(255, 255, 255);&quot;&gt;&amp;nbsp;19 15 81 8 4 37&lt;/span&gt;&lt;/font&gt;" style="text;html=1;whiteSpace=wrap;strokeColor=none;fillColor=none;align=center;verticalAlign=middle;rounded=0;" vertex="1" parent="ECZmX-a7Yze5Ti-O_X9D-1">
          <mxGeometry x="70" y="30" width="260" height="30" as="geometry" />
        </mxCell>
        <mxCell id="ECZmX-a7Yze5Ti-O_X9D-10" value="&lt;font style=&quot;font-size: 16px;&quot;&gt;Tamanho 7&lt;/font&gt;" style="text;html=1;whiteSpace=wrap;strokeColor=none;fillColor=none;align=center;verticalAlign=middle;rounded=0;" vertex="1" parent="ECZmX-a7Yze5Ti-O_X9D-1">
          <mxGeometry x="430" y="30" width="120" height="30" as="geometry" />
        </mxCell>
        <mxCell id="ECZmX-a7Yze5Ti-O_X9D-11" value="&lt;font style=&quot;font-size: 16px;&quot;&gt;0&lt;/font&gt;" style="text;html=1;whiteSpace=wrap;strokeColor=none;fillColor=none;align=center;verticalAlign=middle;rounded=0;" vertex="1" parent="ECZmX-a7Yze5Ti-O_X9D-1">
          <mxGeometry x="20" y="105" width="60" height="30" as="geometry" />
        </mxCell>
        <mxCell id="ECZmX-a7Yze5Ti-O_X9D-12" value="&lt;font style=&quot;font-size: 16px;&quot;&gt;1&lt;/font&gt;" style="text;html=1;whiteSpace=wrap;strokeColor=none;fillColor=none;align=center;verticalAlign=middle;rounded=0;" vertex="1" parent="ECZmX-a7Yze5Ti-O_X9D-1">
          <mxGeometry x="20" y="160" width="60" height="30" as="geometry" />
        </mxCell>
        <mxCell id="ECZmX-a7Yze5Ti-O_X9D-13" value="&lt;span style=&quot;font-size: 16px;&quot;&gt;2&lt;/span&gt;" style="text;html=1;whiteSpace=wrap;strokeColor=none;fillColor=none;align=center;verticalAlign=middle;rounded=0;" vertex="1" parent="ECZmX-a7Yze5Ti-O_X9D-1">
          <mxGeometry x="20" y="225" width="60" height="30" as="geometry" />
        </mxCell>
        <mxCell id="ECZmX-a7Yze5Ti-O_X9D-14" value="&lt;font style=&quot;font-size: 16px;&quot;&gt;3&lt;/font&gt;" style="text;html=1;whiteSpace=wrap;strokeColor=none;fillColor=none;align=center;verticalAlign=middle;rounded=0;" vertex="1" parent="ECZmX-a7Yze5Ti-O_X9D-1">
          <mxGeometry x="20" y="285" width="60" height="30" as="geometry" />
        </mxCell>
        <mxCell id="ECZmX-a7Yze5Ti-O_X9D-15" value="&lt;font style=&quot;font-size: 16px;&quot;&gt;4&lt;/font&gt;" style="text;html=1;whiteSpace=wrap;strokeColor=none;fillColor=none;align=center;verticalAlign=middle;rounded=0;" vertex="1" parent="ECZmX-a7Yze5Ti-O_X9D-1">
          <mxGeometry x="20" y="340" width="60" height="30" as="geometry" />
        </mxCell>
        <mxCell id="ECZmX-a7Yze5Ti-O_X9D-16" value="&lt;font style=&quot;font-size: 16px;&quot;&gt;5&lt;/font&gt;" style="text;html=1;whiteSpace=wrap;strokeColor=none;fillColor=none;align=center;verticalAlign=middle;rounded=0;" vertex="1" parent="ECZmX-a7Yze5Ti-O_X9D-1">
          <mxGeometry x="20" y="405" width="60" height="30" as="geometry" />
        </mxCell>
        <mxCell id="ECZmX-a7Yze5Ti-O_X9D-17" value="&lt;font style=&quot;font-size: 16px;&quot;&gt;6&lt;/font&gt;" style="text;html=1;whiteSpace=wrap;strokeColor=none;fillColor=none;align=center;verticalAlign=middle;rounded=0;" vertex="1" parent="ECZmX-a7Yze5Ti-O_X9D-1">
          <mxGeometry x="20" y="465" width="60" height="30" as="geometry" />
        </mxCell>
        <mxCell id="sCX2OGmo0J2VKZ2BqCTp-1" value="19" style="rounded=0;whiteSpace=wrap;html=1;" vertex="1" parent="ECZmX-a7Yze5Ti-O_X9D-1">
          <mxGeometry x="280" y="390" width="120" height="60" as="geometry" />
        </mxCell>
      </root>
    </mxGraphModel>
  </diagram>
  <diagram name="Cópia do Cópia do Cópia do Cópia do Cópia do Página-1" id="GaQcJgGYAL8Mdy4kPY_K">
    <mxGraphModel dx="2024" dy="834" grid="1" gridSize="10" guides="1" tooltips="1" connect="1" arrows="1" fold="1" page="1" pageScale="1" pageWidth="827" pageHeight="1169" math="0" shadow="0">
      <root>
        <mxCell id="r7-9MA1yNdV7oO0JE33D-0" />
        <mxCell id="r7-9MA1yNdV7oO0JE33D-1" parent="r7-9MA1yNdV7oO0JE33D-0" />
        <mxCell id="r7-9MA1yNdV7oO0JE33D-2" value="" style="rounded=0;whiteSpace=wrap;html=1;" vertex="1" parent="r7-9MA1yNdV7oO0JE33D-1">
          <mxGeometry x="80" y="90" width="120" height="60" as="geometry" />
        </mxCell>
        <mxCell id="r7-9MA1yNdV7oO0JE33D-3" value="15" style="rounded=0;whiteSpace=wrap;html=1;" vertex="1" parent="r7-9MA1yNdV7oO0JE33D-1">
          <mxGeometry x="80" y="150" width="120" height="60" as="geometry" />
        </mxCell>
        <mxCell id="r7-9MA1yNdV7oO0JE33D-4" value="51" style="rounded=0;whiteSpace=wrap;html=1;" vertex="1" parent="r7-9MA1yNdV7oO0JE33D-1">
          <mxGeometry x="80" y="210" width="120" height="60" as="geometry" />
        </mxCell>
        <mxCell id="r7-9MA1yNdV7oO0JE33D-5" value="17" style="rounded=0;whiteSpace=wrap;html=1;" vertex="1" parent="r7-9MA1yNdV7oO0JE33D-1">
          <mxGeometry x="80" y="270" width="120" height="60" as="geometry" />
        </mxCell>
        <mxCell id="r7-9MA1yNdV7oO0JE33D-6" value="" style="rounded=0;whiteSpace=wrap;html=1;" vertex="1" parent="r7-9MA1yNdV7oO0JE33D-1">
          <mxGeometry x="80" y="330" width="120" height="60" as="geometry" />
        </mxCell>
        <mxCell id="r7-9MA1yNdV7oO0JE33D-7" style="edgeStyle=orthogonalEdgeStyle;rounded=0;orthogonalLoop=1;jettySize=auto;html=1;entryX=0;entryY=0.5;entryDx=0;entryDy=0;" edge="1" parent="r7-9MA1yNdV7oO0JE33D-1" source="r7-9MA1yNdV7oO0JE33D-8" target="r7-9MA1yNdV7oO0JE33D-19">
          <mxGeometry relative="1" as="geometry">
            <mxPoint x="280" y="420" as="targetPoint" />
          </mxGeometry>
        </mxCell>
        <mxCell id="r7-9MA1yNdV7oO0JE33D-8" value="47" style="rounded=0;whiteSpace=wrap;html=1;" vertex="1" parent="r7-9MA1yNdV7oO0JE33D-1">
          <mxGeometry x="80" y="390" width="120" height="60" as="geometry" />
        </mxCell>
        <mxCell id="r7-9MA1yNdV7oO0JE33D-9" value="27" style="rounded=0;whiteSpace=wrap;html=1;" vertex="1" parent="r7-9MA1yNdV7oO0JE33D-1">
          <mxGeometry x="80" y="450" width="120" height="60" as="geometry" />
        </mxCell>
        <mxCell id="r7-9MA1yNdV7oO0JE33D-10" value="&lt;font style=&quot;font-size: 16px;&quot;&gt;Inserir&lt;span style=&quot;color: rgb(51, 51, 51); font-family: -apple-system, BlinkMacSystemFont, &amp;quot;Segoe UI&amp;quot;, Roboto, &amp;quot;Helvetica Neue&amp;quot;, Arial, &amp;quot;Noto Sans&amp;quot;, &amp;quot;Liberation Sans&amp;quot;, sans-serif, &amp;quot;Apple Color Emoji&amp;quot;, &amp;quot;Segoe UI Emoji&amp;quot;, &amp;quot;Segoe UI Symbol&amp;quot;, &amp;quot;Noto Color Emoji&amp;quot;; text-align: left; background-color: rgb(255, 255, 255);&quot;&gt;&amp;nbsp;15 81 8 4 37&lt;/span&gt;&lt;/font&gt;" style="text;html=1;whiteSpace=wrap;strokeColor=none;fillColor=none;align=center;verticalAlign=middle;rounded=0;" vertex="1" parent="r7-9MA1yNdV7oO0JE33D-1">
          <mxGeometry x="70" y="30" width="260" height="30" as="geometry" />
        </mxCell>
        <mxCell id="r7-9MA1yNdV7oO0JE33D-11" value="&lt;font style=&quot;font-size: 16px;&quot;&gt;Tamanho 7&lt;/font&gt;" style="text;html=1;whiteSpace=wrap;strokeColor=none;fillColor=none;align=center;verticalAlign=middle;rounded=0;" vertex="1" parent="r7-9MA1yNdV7oO0JE33D-1">
          <mxGeometry x="430" y="30" width="120" height="30" as="geometry" />
        </mxCell>
        <mxCell id="r7-9MA1yNdV7oO0JE33D-12" value="&lt;font style=&quot;font-size: 16px;&quot;&gt;0&lt;/font&gt;" style="text;html=1;whiteSpace=wrap;strokeColor=none;fillColor=none;align=center;verticalAlign=middle;rounded=0;" vertex="1" parent="r7-9MA1yNdV7oO0JE33D-1">
          <mxGeometry x="20" y="105" width="60" height="30" as="geometry" />
        </mxCell>
        <mxCell id="r7-9MA1yNdV7oO0JE33D-13" value="&lt;font style=&quot;font-size: 16px;&quot;&gt;1&lt;/font&gt;" style="text;html=1;whiteSpace=wrap;strokeColor=none;fillColor=none;align=center;verticalAlign=middle;rounded=0;" vertex="1" parent="r7-9MA1yNdV7oO0JE33D-1">
          <mxGeometry x="20" y="160" width="60" height="30" as="geometry" />
        </mxCell>
        <mxCell id="r7-9MA1yNdV7oO0JE33D-14" value="&lt;span style=&quot;font-size: 16px;&quot;&gt;2&lt;/span&gt;" style="text;html=1;whiteSpace=wrap;strokeColor=none;fillColor=none;align=center;verticalAlign=middle;rounded=0;" vertex="1" parent="r7-9MA1yNdV7oO0JE33D-1">
          <mxGeometry x="20" y="225" width="60" height="30" as="geometry" />
        </mxCell>
        <mxCell id="r7-9MA1yNdV7oO0JE33D-15" value="&lt;font style=&quot;font-size: 16px;&quot;&gt;3&lt;/font&gt;" style="text;html=1;whiteSpace=wrap;strokeColor=none;fillColor=none;align=center;verticalAlign=middle;rounded=0;" vertex="1" parent="r7-9MA1yNdV7oO0JE33D-1">
          <mxGeometry x="20" y="285" width="60" height="30" as="geometry" />
        </mxCell>
        <mxCell id="r7-9MA1yNdV7oO0JE33D-16" value="&lt;font style=&quot;font-size: 16px;&quot;&gt;4&lt;/font&gt;" style="text;html=1;whiteSpace=wrap;strokeColor=none;fillColor=none;align=center;verticalAlign=middle;rounded=0;" vertex="1" parent="r7-9MA1yNdV7oO0JE33D-1">
          <mxGeometry x="20" y="340" width="60" height="30" as="geometry" />
        </mxCell>
        <mxCell id="r7-9MA1yNdV7oO0JE33D-17" value="&lt;font style=&quot;font-size: 16px;&quot;&gt;5&lt;/font&gt;" style="text;html=1;whiteSpace=wrap;strokeColor=none;fillColor=none;align=center;verticalAlign=middle;rounded=0;" vertex="1" parent="r7-9MA1yNdV7oO0JE33D-1">
          <mxGeometry x="20" y="405" width="60" height="30" as="geometry" />
        </mxCell>
        <mxCell id="r7-9MA1yNdV7oO0JE33D-18" value="&lt;font style=&quot;font-size: 16px;&quot;&gt;6&lt;/font&gt;" style="text;html=1;whiteSpace=wrap;strokeColor=none;fillColor=none;align=center;verticalAlign=middle;rounded=0;" vertex="1" parent="r7-9MA1yNdV7oO0JE33D-1">
          <mxGeometry x="20" y="465" width="60" height="30" as="geometry" />
        </mxCell>
        <mxCell id="r7-9MA1yNdV7oO0JE33D-19" value="19" style="rounded=0;whiteSpace=wrap;html=1;" vertex="1" parent="r7-9MA1yNdV7oO0JE33D-1">
          <mxGeometry x="280" y="390" width="120" height="60" as="geometry" />
        </mxCell>
      </root>
    </mxGraphModel>
  </diagram>
  <diagram name="Cópia do Cópia do Cópia do Cópia do Cópia do Cópia do Página-1" id="qGlJX0K93VMrRe3Q1E9B">
    <mxGraphModel dx="2024" dy="834" grid="1" gridSize="10" guides="1" tooltips="1" connect="1" arrows="1" fold="1" page="1" pageScale="1" pageWidth="827" pageHeight="1169" math="0" shadow="0">
      <root>
        <mxCell id="lsDBp__gNz4ea0RuWayY-0" />
        <mxCell id="lsDBp__gNz4ea0RuWayY-1" parent="lsDBp__gNz4ea0RuWayY-0" />
        <mxCell id="lsDBp__gNz4ea0RuWayY-2" value="" style="rounded=0;whiteSpace=wrap;html=1;" vertex="1" parent="lsDBp__gNz4ea0RuWayY-1">
          <mxGeometry x="80" y="90" width="120" height="60" as="geometry" />
        </mxCell>
        <mxCell id="lsDBp__gNz4ea0RuWayY-3" value="15" style="rounded=0;whiteSpace=wrap;html=1;" vertex="1" parent="lsDBp__gNz4ea0RuWayY-1">
          <mxGeometry x="80" y="150" width="120" height="60" as="geometry" />
        </mxCell>
        <mxCell id="lsDBp__gNz4ea0RuWayY-4" value="51" style="rounded=0;whiteSpace=wrap;html=1;" vertex="1" parent="lsDBp__gNz4ea0RuWayY-1">
          <mxGeometry x="80" y="210" width="120" height="60" as="geometry" />
        </mxCell>
        <mxCell id="lsDBp__gNz4ea0RuWayY-5" value="17" style="rounded=0;whiteSpace=wrap;html=1;" vertex="1" parent="lsDBp__gNz4ea0RuWayY-1">
          <mxGeometry x="80" y="270" width="120" height="60" as="geometry" />
        </mxCell>
        <mxCell id="lsDBp__gNz4ea0RuWayY-6" value="81" style="rounded=0;whiteSpace=wrap;html=1;" vertex="1" parent="lsDBp__gNz4ea0RuWayY-1">
          <mxGeometry x="80" y="330" width="120" height="60" as="geometry" />
        </mxCell>
        <mxCell id="lsDBp__gNz4ea0RuWayY-7" style="edgeStyle=orthogonalEdgeStyle;rounded=0;orthogonalLoop=1;jettySize=auto;html=1;entryX=0;entryY=0.5;entryDx=0;entryDy=0;" edge="1" parent="lsDBp__gNz4ea0RuWayY-1" source="lsDBp__gNz4ea0RuWayY-8" target="lsDBp__gNz4ea0RuWayY-19">
          <mxGeometry relative="1" as="geometry">
            <mxPoint x="280" y="420" as="targetPoint" />
          </mxGeometry>
        </mxCell>
        <mxCell id="lsDBp__gNz4ea0RuWayY-8" value="47" style="rounded=0;whiteSpace=wrap;html=1;" vertex="1" parent="lsDBp__gNz4ea0RuWayY-1">
          <mxGeometry x="80" y="390" width="120" height="60" as="geometry" />
        </mxCell>
        <mxCell id="lsDBp__gNz4ea0RuWayY-9" value="27" style="rounded=0;whiteSpace=wrap;html=1;" vertex="1" parent="lsDBp__gNz4ea0RuWayY-1">
          <mxGeometry x="80" y="450" width="120" height="60" as="geometry" />
        </mxCell>
        <mxCell id="lsDBp__gNz4ea0RuWayY-10" value="&lt;font style=&quot;font-size: 16px;&quot;&gt;Inserir&lt;span style=&quot;color: rgb(51, 51, 51); font-family: -apple-system, BlinkMacSystemFont, &amp;quot;Segoe UI&amp;quot;, Roboto, &amp;quot;Helvetica Neue&amp;quot;, Arial, &amp;quot;Noto Sans&amp;quot;, &amp;quot;Liberation Sans&amp;quot;, sans-serif, &amp;quot;Apple Color Emoji&amp;quot;, &amp;quot;Segoe UI Emoji&amp;quot;, &amp;quot;Segoe UI Symbol&amp;quot;, &amp;quot;Noto Color Emoji&amp;quot;; text-align: left; background-color: rgb(255, 255, 255);&quot;&gt;&amp;nbsp;81 8 4 37&lt;/span&gt;&lt;/font&gt;" style="text;html=1;whiteSpace=wrap;strokeColor=none;fillColor=none;align=center;verticalAlign=middle;rounded=0;" vertex="1" parent="lsDBp__gNz4ea0RuWayY-1">
          <mxGeometry x="70" y="30" width="260" height="30" as="geometry" />
        </mxCell>
        <mxCell id="lsDBp__gNz4ea0RuWayY-11" value="&lt;font style=&quot;font-size: 16px;&quot;&gt;Tamanho 7&lt;/font&gt;" style="text;html=1;whiteSpace=wrap;strokeColor=none;fillColor=none;align=center;verticalAlign=middle;rounded=0;" vertex="1" parent="lsDBp__gNz4ea0RuWayY-1">
          <mxGeometry x="430" y="30" width="120" height="30" as="geometry" />
        </mxCell>
        <mxCell id="lsDBp__gNz4ea0RuWayY-12" value="&lt;font style=&quot;font-size: 16px;&quot;&gt;0&lt;/font&gt;" style="text;html=1;whiteSpace=wrap;strokeColor=none;fillColor=none;align=center;verticalAlign=middle;rounded=0;" vertex="1" parent="lsDBp__gNz4ea0RuWayY-1">
          <mxGeometry x="20" y="105" width="60" height="30" as="geometry" />
        </mxCell>
        <mxCell id="lsDBp__gNz4ea0RuWayY-13" value="&lt;font style=&quot;font-size: 16px;&quot;&gt;1&lt;/font&gt;" style="text;html=1;whiteSpace=wrap;strokeColor=none;fillColor=none;align=center;verticalAlign=middle;rounded=0;" vertex="1" parent="lsDBp__gNz4ea0RuWayY-1">
          <mxGeometry x="20" y="160" width="60" height="30" as="geometry" />
        </mxCell>
        <mxCell id="lsDBp__gNz4ea0RuWayY-14" value="&lt;span style=&quot;font-size: 16px;&quot;&gt;2&lt;/span&gt;" style="text;html=1;whiteSpace=wrap;strokeColor=none;fillColor=none;align=center;verticalAlign=middle;rounded=0;" vertex="1" parent="lsDBp__gNz4ea0RuWayY-1">
          <mxGeometry x="20" y="225" width="60" height="30" as="geometry" />
        </mxCell>
        <mxCell id="lsDBp__gNz4ea0RuWayY-15" value="&lt;font style=&quot;font-size: 16px;&quot;&gt;3&lt;/font&gt;" style="text;html=1;whiteSpace=wrap;strokeColor=none;fillColor=none;align=center;verticalAlign=middle;rounded=0;" vertex="1" parent="lsDBp__gNz4ea0RuWayY-1">
          <mxGeometry x="20" y="285" width="60" height="30" as="geometry" />
        </mxCell>
        <mxCell id="lsDBp__gNz4ea0RuWayY-16" value="&lt;font style=&quot;font-size: 16px;&quot;&gt;4&lt;/font&gt;" style="text;html=1;whiteSpace=wrap;strokeColor=none;fillColor=none;align=center;verticalAlign=middle;rounded=0;" vertex="1" parent="lsDBp__gNz4ea0RuWayY-1">
          <mxGeometry x="20" y="340" width="60" height="30" as="geometry" />
        </mxCell>
        <mxCell id="lsDBp__gNz4ea0RuWayY-17" value="&lt;font style=&quot;font-size: 16px;&quot;&gt;5&lt;/font&gt;" style="text;html=1;whiteSpace=wrap;strokeColor=none;fillColor=none;align=center;verticalAlign=middle;rounded=0;" vertex="1" parent="lsDBp__gNz4ea0RuWayY-1">
          <mxGeometry x="20" y="405" width="60" height="30" as="geometry" />
        </mxCell>
        <mxCell id="lsDBp__gNz4ea0RuWayY-18" value="&lt;font style=&quot;font-size: 16px;&quot;&gt;6&lt;/font&gt;" style="text;html=1;whiteSpace=wrap;strokeColor=none;fillColor=none;align=center;verticalAlign=middle;rounded=0;" vertex="1" parent="lsDBp__gNz4ea0RuWayY-1">
          <mxGeometry x="20" y="465" width="60" height="30" as="geometry" />
        </mxCell>
        <mxCell id="lsDBp__gNz4ea0RuWayY-19" value="19" style="rounded=0;whiteSpace=wrap;html=1;" vertex="1" parent="lsDBp__gNz4ea0RuWayY-1">
          <mxGeometry x="280" y="390" width="120" height="60" as="geometry" />
        </mxCell>
      </root>
    </mxGraphModel>
  </diagram>
  <diagram name="Cópia do Cópia do Cópia do Cópia do Cópia do Cópia do Cópia do Página-1" id="NrzSUSduUrs3EoLxN-jv">
    <mxGraphModel dx="2024" dy="834" grid="1" gridSize="10" guides="1" tooltips="1" connect="1" arrows="1" fold="1" page="1" pageScale="1" pageWidth="827" pageHeight="1169" math="0" shadow="0">
      <root>
        <mxCell id="ObwsevM3u_P2ZHXve_Ob-0" />
        <mxCell id="ObwsevM3u_P2ZHXve_Ob-1" parent="ObwsevM3u_P2ZHXve_Ob-0" />
        <mxCell id="ObwsevM3u_P2ZHXve_Ob-2" value="" style="rounded=0;whiteSpace=wrap;html=1;" vertex="1" parent="ObwsevM3u_P2ZHXve_Ob-1">
          <mxGeometry x="80" y="90" width="120" height="60" as="geometry" />
        </mxCell>
        <mxCell id="xdXxAcUlwOOs1mNbFafp-0" style="edgeStyle=orthogonalEdgeStyle;rounded=0;orthogonalLoop=1;jettySize=auto;html=1;exitX=1;exitY=0.5;exitDx=0;exitDy=0;entryX=0;entryY=0.5;entryDx=0;entryDy=0;" edge="1" parent="ObwsevM3u_P2ZHXve_Ob-1" source="ObwsevM3u_P2ZHXve_Ob-3" target="xdXxAcUlwOOs1mNbFafp-1">
          <mxGeometry relative="1" as="geometry">
            <mxPoint x="290" y="180" as="targetPoint" />
          </mxGeometry>
        </mxCell>
        <mxCell id="ObwsevM3u_P2ZHXve_Ob-3" value="15" style="rounded=0;whiteSpace=wrap;html=1;" vertex="1" parent="ObwsevM3u_P2ZHXve_Ob-1">
          <mxGeometry x="80" y="150" width="120" height="60" as="geometry" />
        </mxCell>
        <mxCell id="ObwsevM3u_P2ZHXve_Ob-4" value="51" style="rounded=0;whiteSpace=wrap;html=1;" vertex="1" parent="ObwsevM3u_P2ZHXve_Ob-1">
          <mxGeometry x="80" y="210" width="120" height="60" as="geometry" />
        </mxCell>
        <mxCell id="ObwsevM3u_P2ZHXve_Ob-5" value="17" style="rounded=0;whiteSpace=wrap;html=1;" vertex="1" parent="ObwsevM3u_P2ZHXve_Ob-1">
          <mxGeometry x="80" y="270" width="120" height="60" as="geometry" />
        </mxCell>
        <mxCell id="ObwsevM3u_P2ZHXve_Ob-6" value="81" style="rounded=0;whiteSpace=wrap;html=1;" vertex="1" parent="ObwsevM3u_P2ZHXve_Ob-1">
          <mxGeometry x="80" y="330" width="120" height="60" as="geometry" />
        </mxCell>
        <mxCell id="ObwsevM3u_P2ZHXve_Ob-7" style="edgeStyle=orthogonalEdgeStyle;rounded=0;orthogonalLoop=1;jettySize=auto;html=1;entryX=0;entryY=0.5;entryDx=0;entryDy=0;" edge="1" parent="ObwsevM3u_P2ZHXve_Ob-1" source="ObwsevM3u_P2ZHXve_Ob-8" target="ObwsevM3u_P2ZHXve_Ob-19">
          <mxGeometry relative="1" as="geometry">
            <mxPoint x="280" y="420" as="targetPoint" />
          </mxGeometry>
        </mxCell>
        <mxCell id="ObwsevM3u_P2ZHXve_Ob-8" value="47" style="rounded=0;whiteSpace=wrap;html=1;" vertex="1" parent="ObwsevM3u_P2ZHXve_Ob-1">
          <mxGeometry x="80" y="390" width="120" height="60" as="geometry" />
        </mxCell>
        <mxCell id="ObwsevM3u_P2ZHXve_Ob-9" value="27" style="rounded=0;whiteSpace=wrap;html=1;" vertex="1" parent="ObwsevM3u_P2ZHXve_Ob-1">
          <mxGeometry x="80" y="450" width="120" height="60" as="geometry" />
        </mxCell>
        <mxCell id="ObwsevM3u_P2ZHXve_Ob-10" value="&lt;font style=&quot;font-size: 16px;&quot;&gt;Inserir&lt;span style=&quot;color: rgb(51, 51, 51); font-family: -apple-system, BlinkMacSystemFont, &amp;quot;Segoe UI&amp;quot;, Roboto, &amp;quot;Helvetica Neue&amp;quot;, Arial, &amp;quot;Noto Sans&amp;quot;, &amp;quot;Liberation Sans&amp;quot;, sans-serif, &amp;quot;Apple Color Emoji&amp;quot;, &amp;quot;Segoe UI Emoji&amp;quot;, &amp;quot;Segoe UI Symbol&amp;quot;, &amp;quot;Noto Color Emoji&amp;quot;; text-align: left; background-color: rgb(255, 255, 255);&quot;&gt;&amp;nbsp;8 4 37&lt;/span&gt;&lt;/font&gt;" style="text;html=1;whiteSpace=wrap;strokeColor=none;fillColor=none;align=center;verticalAlign=middle;rounded=0;" vertex="1" parent="ObwsevM3u_P2ZHXve_Ob-1">
          <mxGeometry x="70" y="30" width="260" height="30" as="geometry" />
        </mxCell>
        <mxCell id="ObwsevM3u_P2ZHXve_Ob-11" value="&lt;font style=&quot;font-size: 16px;&quot;&gt;Tamanho 7&lt;/font&gt;" style="text;html=1;whiteSpace=wrap;strokeColor=none;fillColor=none;align=center;verticalAlign=middle;rounded=0;" vertex="1" parent="ObwsevM3u_P2ZHXve_Ob-1">
          <mxGeometry x="430" y="30" width="120" height="30" as="geometry" />
        </mxCell>
        <mxCell id="ObwsevM3u_P2ZHXve_Ob-12" value="&lt;font style=&quot;font-size: 16px;&quot;&gt;0&lt;/font&gt;" style="text;html=1;whiteSpace=wrap;strokeColor=none;fillColor=none;align=center;verticalAlign=middle;rounded=0;" vertex="1" parent="ObwsevM3u_P2ZHXve_Ob-1">
          <mxGeometry x="20" y="105" width="60" height="30" as="geometry" />
        </mxCell>
        <mxCell id="ObwsevM3u_P2ZHXve_Ob-13" value="&lt;font style=&quot;font-size: 16px;&quot;&gt;1&lt;/font&gt;" style="text;html=1;whiteSpace=wrap;strokeColor=none;fillColor=none;align=center;verticalAlign=middle;rounded=0;" vertex="1" parent="ObwsevM3u_P2ZHXve_Ob-1">
          <mxGeometry x="20" y="160" width="60" height="30" as="geometry" />
        </mxCell>
        <mxCell id="ObwsevM3u_P2ZHXve_Ob-14" value="&lt;span style=&quot;font-size: 16px;&quot;&gt;2&lt;/span&gt;" style="text;html=1;whiteSpace=wrap;strokeColor=none;fillColor=none;align=center;verticalAlign=middle;rounded=0;" vertex="1" parent="ObwsevM3u_P2ZHXve_Ob-1">
          <mxGeometry x="20" y="225" width="60" height="30" as="geometry" />
        </mxCell>
        <mxCell id="ObwsevM3u_P2ZHXve_Ob-15" value="&lt;font style=&quot;font-size: 16px;&quot;&gt;3&lt;/font&gt;" style="text;html=1;whiteSpace=wrap;strokeColor=none;fillColor=none;align=center;verticalAlign=middle;rounded=0;" vertex="1" parent="ObwsevM3u_P2ZHXve_Ob-1">
          <mxGeometry x="20" y="285" width="60" height="30" as="geometry" />
        </mxCell>
        <mxCell id="ObwsevM3u_P2ZHXve_Ob-16" value="&lt;font style=&quot;font-size: 16px;&quot;&gt;4&lt;/font&gt;" style="text;html=1;whiteSpace=wrap;strokeColor=none;fillColor=none;align=center;verticalAlign=middle;rounded=0;" vertex="1" parent="ObwsevM3u_P2ZHXve_Ob-1">
          <mxGeometry x="20" y="340" width="60" height="30" as="geometry" />
        </mxCell>
        <mxCell id="ObwsevM3u_P2ZHXve_Ob-17" value="&lt;font style=&quot;font-size: 16px;&quot;&gt;5&lt;/font&gt;" style="text;html=1;whiteSpace=wrap;strokeColor=none;fillColor=none;align=center;verticalAlign=middle;rounded=0;" vertex="1" parent="ObwsevM3u_P2ZHXve_Ob-1">
          <mxGeometry x="20" y="405" width="60" height="30" as="geometry" />
        </mxCell>
        <mxCell id="ObwsevM3u_P2ZHXve_Ob-18" value="&lt;font style=&quot;font-size: 16px;&quot;&gt;6&lt;/font&gt;" style="text;html=1;whiteSpace=wrap;strokeColor=none;fillColor=none;align=center;verticalAlign=middle;rounded=0;" vertex="1" parent="ObwsevM3u_P2ZHXve_Ob-1">
          <mxGeometry x="20" y="465" width="60" height="30" as="geometry" />
        </mxCell>
        <mxCell id="ObwsevM3u_P2ZHXve_Ob-19" value="19" style="rounded=0;whiteSpace=wrap;html=1;" vertex="1" parent="ObwsevM3u_P2ZHXve_Ob-1">
          <mxGeometry x="280" y="390" width="120" height="60" as="geometry" />
        </mxCell>
        <mxCell id="xdXxAcUlwOOs1mNbFafp-1" value="8" style="rounded=0;whiteSpace=wrap;html=1;" vertex="1" parent="ObwsevM3u_P2ZHXve_Ob-1">
          <mxGeometry x="280" y="150" width="120" height="60" as="geometry" />
        </mxCell>
      </root>
    </mxGraphModel>
  </diagram>
  <diagram name="Cópia do Cópia do Cópia do Cópia do Cópia do Cópia do Cópia do Cópia do Página-1" id="0pH0WwLhHZLEyQjJ6ZDe">
    <mxGraphModel dx="2024" dy="834" grid="1" gridSize="10" guides="1" tooltips="1" connect="1" arrows="1" fold="1" page="1" pageScale="1" pageWidth="827" pageHeight="1169" math="0" shadow="0">
      <root>
        <mxCell id="qGvmBrY8sAW8wE0_Czl3-0" />
        <mxCell id="qGvmBrY8sAW8wE0_Czl3-1" parent="qGvmBrY8sAW8wE0_Czl3-0" />
        <mxCell id="qGvmBrY8sAW8wE0_Czl3-2" value="" style="rounded=0;whiteSpace=wrap;html=1;" vertex="1" parent="qGvmBrY8sAW8wE0_Czl3-1">
          <mxGeometry x="80" y="90" width="120" height="60" as="geometry" />
        </mxCell>
        <mxCell id="qGvmBrY8sAW8wE0_Czl3-3" style="edgeStyle=orthogonalEdgeStyle;rounded=0;orthogonalLoop=1;jettySize=auto;html=1;exitX=1;exitY=0.5;exitDx=0;exitDy=0;entryX=0;entryY=0.5;entryDx=0;entryDy=0;" edge="1" parent="qGvmBrY8sAW8wE0_Czl3-1" source="qGvmBrY8sAW8wE0_Czl3-4" target="qGvmBrY8sAW8wE0_Czl3-21">
          <mxGeometry relative="1" as="geometry">
            <mxPoint x="290" y="180" as="targetPoint" />
          </mxGeometry>
        </mxCell>
        <mxCell id="qGvmBrY8sAW8wE0_Czl3-4" value="15" style="rounded=0;whiteSpace=wrap;html=1;" vertex="1" parent="qGvmBrY8sAW8wE0_Czl3-1">
          <mxGeometry x="80" y="150" width="120" height="60" as="geometry" />
        </mxCell>
        <mxCell id="qGvmBrY8sAW8wE0_Czl3-5" value="51" style="rounded=0;whiteSpace=wrap;html=1;" vertex="1" parent="qGvmBrY8sAW8wE0_Czl3-1">
          <mxGeometry x="80" y="210" width="120" height="60" as="geometry" />
        </mxCell>
        <mxCell id="qGvmBrY8sAW8wE0_Czl3-6" value="17" style="rounded=0;whiteSpace=wrap;html=1;" vertex="1" parent="qGvmBrY8sAW8wE0_Czl3-1">
          <mxGeometry x="80" y="270" width="120" height="60" as="geometry" />
        </mxCell>
        <mxCell id="ZcDJhGbYePWdBfxUY7AO-1" style="edgeStyle=orthogonalEdgeStyle;rounded=0;orthogonalLoop=1;jettySize=auto;html=1;" edge="1" parent="qGvmBrY8sAW8wE0_Czl3-1" source="qGvmBrY8sAW8wE0_Czl3-7" target="ZcDJhGbYePWdBfxUY7AO-0">
          <mxGeometry relative="1" as="geometry" />
        </mxCell>
        <mxCell id="qGvmBrY8sAW8wE0_Czl3-7" value="81" style="rounded=0;whiteSpace=wrap;html=1;" vertex="1" parent="qGvmBrY8sAW8wE0_Czl3-1">
          <mxGeometry x="80" y="330" width="120" height="60" as="geometry" />
        </mxCell>
        <mxCell id="qGvmBrY8sAW8wE0_Czl3-8" style="edgeStyle=orthogonalEdgeStyle;rounded=0;orthogonalLoop=1;jettySize=auto;html=1;entryX=0;entryY=0.5;entryDx=0;entryDy=0;" edge="1" parent="qGvmBrY8sAW8wE0_Czl3-1" source="qGvmBrY8sAW8wE0_Czl3-9" target="qGvmBrY8sAW8wE0_Czl3-20">
          <mxGeometry relative="1" as="geometry">
            <mxPoint x="280" y="420" as="targetPoint" />
          </mxGeometry>
        </mxCell>
        <mxCell id="qGvmBrY8sAW8wE0_Czl3-9" value="47" style="rounded=0;whiteSpace=wrap;html=1;" vertex="1" parent="qGvmBrY8sAW8wE0_Czl3-1">
          <mxGeometry x="80" y="390" width="120" height="60" as="geometry" />
        </mxCell>
        <mxCell id="qGvmBrY8sAW8wE0_Czl3-10" value="27" style="rounded=0;whiteSpace=wrap;html=1;" vertex="1" parent="qGvmBrY8sAW8wE0_Czl3-1">
          <mxGeometry x="80" y="450" width="120" height="60" as="geometry" />
        </mxCell>
        <mxCell id="qGvmBrY8sAW8wE0_Czl3-11" value="&lt;font style=&quot;font-size: 16px;&quot;&gt;Inserir&lt;span style=&quot;color: rgb(51, 51, 51); font-family: -apple-system, BlinkMacSystemFont, &amp;quot;Segoe UI&amp;quot;, Roboto, &amp;quot;Helvetica Neue&amp;quot;, Arial, &amp;quot;Noto Sans&amp;quot;, &amp;quot;Liberation Sans&amp;quot;, sans-serif, &amp;quot;Apple Color Emoji&amp;quot;, &amp;quot;Segoe UI Emoji&amp;quot;, &amp;quot;Segoe UI Symbol&amp;quot;, &amp;quot;Noto Color Emoji&amp;quot;; text-align: left; background-color: rgb(255, 255, 255);&quot;&gt;&amp;nbsp;4 37&lt;/span&gt;&lt;/font&gt;" style="text;html=1;whiteSpace=wrap;strokeColor=none;fillColor=none;align=center;verticalAlign=middle;rounded=0;" vertex="1" parent="qGvmBrY8sAW8wE0_Czl3-1">
          <mxGeometry x="70" y="30" width="260" height="30" as="geometry" />
        </mxCell>
        <mxCell id="qGvmBrY8sAW8wE0_Czl3-12" value="&lt;font style=&quot;font-size: 16px;&quot;&gt;Tamanho 7&lt;/font&gt;" style="text;html=1;whiteSpace=wrap;strokeColor=none;fillColor=none;align=center;verticalAlign=middle;rounded=0;" vertex="1" parent="qGvmBrY8sAW8wE0_Czl3-1">
          <mxGeometry x="430" y="30" width="120" height="30" as="geometry" />
        </mxCell>
        <mxCell id="qGvmBrY8sAW8wE0_Czl3-13" value="&lt;font style=&quot;font-size: 16px;&quot;&gt;0&lt;/font&gt;" style="text;html=1;whiteSpace=wrap;strokeColor=none;fillColor=none;align=center;verticalAlign=middle;rounded=0;" vertex="1" parent="qGvmBrY8sAW8wE0_Czl3-1">
          <mxGeometry x="20" y="105" width="60" height="30" as="geometry" />
        </mxCell>
        <mxCell id="qGvmBrY8sAW8wE0_Czl3-14" value="&lt;font style=&quot;font-size: 16px;&quot;&gt;1&lt;/font&gt;" style="text;html=1;whiteSpace=wrap;strokeColor=none;fillColor=none;align=center;verticalAlign=middle;rounded=0;" vertex="1" parent="qGvmBrY8sAW8wE0_Czl3-1">
          <mxGeometry x="20" y="160" width="60" height="30" as="geometry" />
        </mxCell>
        <mxCell id="qGvmBrY8sAW8wE0_Czl3-15" value="&lt;span style=&quot;font-size: 16px;&quot;&gt;2&lt;/span&gt;" style="text;html=1;whiteSpace=wrap;strokeColor=none;fillColor=none;align=center;verticalAlign=middle;rounded=0;" vertex="1" parent="qGvmBrY8sAW8wE0_Czl3-1">
          <mxGeometry x="20" y="225" width="60" height="30" as="geometry" />
        </mxCell>
        <mxCell id="qGvmBrY8sAW8wE0_Czl3-16" value="&lt;font style=&quot;font-size: 16px;&quot;&gt;3&lt;/font&gt;" style="text;html=1;whiteSpace=wrap;strokeColor=none;fillColor=none;align=center;verticalAlign=middle;rounded=0;" vertex="1" parent="qGvmBrY8sAW8wE0_Czl3-1">
          <mxGeometry x="20" y="285" width="60" height="30" as="geometry" />
        </mxCell>
        <mxCell id="qGvmBrY8sAW8wE0_Czl3-17" value="&lt;font style=&quot;font-size: 16px;&quot;&gt;4&lt;/font&gt;" style="text;html=1;whiteSpace=wrap;strokeColor=none;fillColor=none;align=center;verticalAlign=middle;rounded=0;" vertex="1" parent="qGvmBrY8sAW8wE0_Czl3-1">
          <mxGeometry x="20" y="340" width="60" height="30" as="geometry" />
        </mxCell>
        <mxCell id="qGvmBrY8sAW8wE0_Czl3-18" value="&lt;font style=&quot;font-size: 16px;&quot;&gt;5&lt;/font&gt;" style="text;html=1;whiteSpace=wrap;strokeColor=none;fillColor=none;align=center;verticalAlign=middle;rounded=0;" vertex="1" parent="qGvmBrY8sAW8wE0_Czl3-1">
          <mxGeometry x="20" y="405" width="60" height="30" as="geometry" />
        </mxCell>
        <mxCell id="qGvmBrY8sAW8wE0_Czl3-19" value="&lt;font style=&quot;font-size: 16px;&quot;&gt;6&lt;/font&gt;" style="text;html=1;whiteSpace=wrap;strokeColor=none;fillColor=none;align=center;verticalAlign=middle;rounded=0;" vertex="1" parent="qGvmBrY8sAW8wE0_Czl3-1">
          <mxGeometry x="20" y="465" width="60" height="30" as="geometry" />
        </mxCell>
        <mxCell id="qGvmBrY8sAW8wE0_Czl3-20" value="19" style="rounded=0;whiteSpace=wrap;html=1;" vertex="1" parent="qGvmBrY8sAW8wE0_Czl3-1">
          <mxGeometry x="280" y="390" width="120" height="60" as="geometry" />
        </mxCell>
        <mxCell id="qGvmBrY8sAW8wE0_Czl3-21" value="8" style="rounded=0;whiteSpace=wrap;html=1;" vertex="1" parent="qGvmBrY8sAW8wE0_Czl3-1">
          <mxGeometry x="280" y="150" width="120" height="60" as="geometry" />
        </mxCell>
        <mxCell id="ZcDJhGbYePWdBfxUY7AO-0" value="4" style="rounded=0;whiteSpace=wrap;html=1;" vertex="1" parent="qGvmBrY8sAW8wE0_Czl3-1">
          <mxGeometry x="280" y="330" width="120" height="60" as="geometry" />
        </mxCell>
      </root>
    </mxGraphModel>
  </diagram>
  <diagram name="Cópia do Cópia do Cópia do Cópia do Cópia do Cópia do Cópia do Cópia do Cópia do Página-1" id="pnU-fUIEC0A8MQO_LSSO">
    <mxGraphModel dx="2024" dy="834" grid="1" gridSize="10" guides="1" tooltips="1" connect="1" arrows="1" fold="1" page="1" pageScale="1" pageWidth="827" pageHeight="1169" math="0" shadow="0">
      <root>
        <mxCell id="1wOoHc2vRw_3muNbEGq2-0" />
        <mxCell id="1wOoHc2vRw_3muNbEGq2-1" parent="1wOoHc2vRw_3muNbEGq2-0" />
        <mxCell id="1wOoHc2vRw_3muNbEGq2-2" value="" style="rounded=0;whiteSpace=wrap;html=1;" vertex="1" parent="1wOoHc2vRw_3muNbEGq2-1">
          <mxGeometry x="80" y="90" width="120" height="60" as="geometry" />
        </mxCell>
        <mxCell id="1wOoHc2vRw_3muNbEGq2-3" style="edgeStyle=orthogonalEdgeStyle;rounded=0;orthogonalLoop=1;jettySize=auto;html=1;exitX=1;exitY=0.5;exitDx=0;exitDy=0;entryX=0;entryY=0.5;entryDx=0;entryDy=0;" edge="1" parent="1wOoHc2vRw_3muNbEGq2-1" source="1wOoHc2vRw_3muNbEGq2-4" target="1wOoHc2vRw_3muNbEGq2-22">
          <mxGeometry relative="1" as="geometry">
            <mxPoint x="290" y="180" as="targetPoint" />
          </mxGeometry>
        </mxCell>
        <mxCell id="1wOoHc2vRw_3muNbEGq2-4" value="15" style="rounded=0;whiteSpace=wrap;html=1;" vertex="1" parent="1wOoHc2vRw_3muNbEGq2-1">
          <mxGeometry x="80" y="150" width="120" height="60" as="geometry" />
        </mxCell>
        <mxCell id="NNgSltj_T2NIxe9wQd-p-0" style="edgeStyle=orthogonalEdgeStyle;rounded=0;orthogonalLoop=1;jettySize=auto;html=1;" edge="1" parent="1wOoHc2vRw_3muNbEGq2-1" source="1wOoHc2vRw_3muNbEGq2-5">
          <mxGeometry relative="1" as="geometry">
            <mxPoint x="280" y="240" as="targetPoint" />
          </mxGeometry>
        </mxCell>
        <mxCell id="1wOoHc2vRw_3muNbEGq2-5" value="51" style="rounded=0;whiteSpace=wrap;html=1;" vertex="1" parent="1wOoHc2vRw_3muNbEGq2-1">
          <mxGeometry x="80" y="210" width="120" height="60" as="geometry" />
        </mxCell>
        <mxCell id="1wOoHc2vRw_3muNbEGq2-6" value="17" style="rounded=0;whiteSpace=wrap;html=1;" vertex="1" parent="1wOoHc2vRw_3muNbEGq2-1">
          <mxGeometry x="80" y="270" width="120" height="60" as="geometry" />
        </mxCell>
        <mxCell id="1wOoHc2vRw_3muNbEGq2-7" style="edgeStyle=orthogonalEdgeStyle;rounded=0;orthogonalLoop=1;jettySize=auto;html=1;" edge="1" parent="1wOoHc2vRw_3muNbEGq2-1" source="1wOoHc2vRw_3muNbEGq2-8" target="1wOoHc2vRw_3muNbEGq2-23">
          <mxGeometry relative="1" as="geometry" />
        </mxCell>
        <mxCell id="1wOoHc2vRw_3muNbEGq2-8" value="81" style="rounded=0;whiteSpace=wrap;html=1;" vertex="1" parent="1wOoHc2vRw_3muNbEGq2-1">
          <mxGeometry x="80" y="330" width="120" height="60" as="geometry" />
        </mxCell>
        <mxCell id="1wOoHc2vRw_3muNbEGq2-9" style="edgeStyle=orthogonalEdgeStyle;rounded=0;orthogonalLoop=1;jettySize=auto;html=1;entryX=0;entryY=0.5;entryDx=0;entryDy=0;" edge="1" parent="1wOoHc2vRw_3muNbEGq2-1" source="1wOoHc2vRw_3muNbEGq2-10" target="1wOoHc2vRw_3muNbEGq2-21">
          <mxGeometry relative="1" as="geometry">
            <mxPoint x="280" y="420" as="targetPoint" />
          </mxGeometry>
        </mxCell>
        <mxCell id="1wOoHc2vRw_3muNbEGq2-10" value="47" style="rounded=0;whiteSpace=wrap;html=1;" vertex="1" parent="1wOoHc2vRw_3muNbEGq2-1">
          <mxGeometry x="80" y="390" width="120" height="60" as="geometry" />
        </mxCell>
        <mxCell id="1wOoHc2vRw_3muNbEGq2-11" value="27" style="rounded=0;whiteSpace=wrap;html=1;" vertex="1" parent="1wOoHc2vRw_3muNbEGq2-1">
          <mxGeometry x="80" y="450" width="120" height="60" as="geometry" />
        </mxCell>
        <mxCell id="1wOoHc2vRw_3muNbEGq2-12" value="&lt;font style=&quot;font-size: 16px;&quot;&gt;Inserir&lt;span style=&quot;color: rgb(51, 51, 51); font-family: -apple-system, BlinkMacSystemFont, &amp;quot;Segoe UI&amp;quot;, Roboto, &amp;quot;Helvetica Neue&amp;quot;, Arial, &amp;quot;Noto Sans&amp;quot;, &amp;quot;Liberation Sans&amp;quot;, sans-serif, &amp;quot;Apple Color Emoji&amp;quot;, &amp;quot;Segoe UI Emoji&amp;quot;, &amp;quot;Segoe UI Symbol&amp;quot;, &amp;quot;Noto Color Emoji&amp;quot;; text-align: left; background-color: rgb(255, 255, 255);&quot;&gt;&amp;nbsp;37&lt;/span&gt;&lt;/font&gt;" style="text;html=1;whiteSpace=wrap;strokeColor=none;fillColor=none;align=center;verticalAlign=middle;rounded=0;" vertex="1" parent="1wOoHc2vRw_3muNbEGq2-1">
          <mxGeometry x="70" y="30" width="260" height="30" as="geometry" />
        </mxCell>
        <mxCell id="1wOoHc2vRw_3muNbEGq2-13" value="&lt;font style=&quot;font-size: 16px;&quot;&gt;Tamanho 7&lt;/font&gt;" style="text;html=1;whiteSpace=wrap;strokeColor=none;fillColor=none;align=center;verticalAlign=middle;rounded=0;" vertex="1" parent="1wOoHc2vRw_3muNbEGq2-1">
          <mxGeometry x="430" y="30" width="120" height="30" as="geometry" />
        </mxCell>
        <mxCell id="1wOoHc2vRw_3muNbEGq2-14" value="&lt;font style=&quot;font-size: 16px;&quot;&gt;0&lt;/font&gt;" style="text;html=1;whiteSpace=wrap;strokeColor=none;fillColor=none;align=center;verticalAlign=middle;rounded=0;" vertex="1" parent="1wOoHc2vRw_3muNbEGq2-1">
          <mxGeometry x="20" y="105" width="60" height="30" as="geometry" />
        </mxCell>
        <mxCell id="1wOoHc2vRw_3muNbEGq2-15" value="&lt;font style=&quot;font-size: 16px;&quot;&gt;1&lt;/font&gt;" style="text;html=1;whiteSpace=wrap;strokeColor=none;fillColor=none;align=center;verticalAlign=middle;rounded=0;" vertex="1" parent="1wOoHc2vRw_3muNbEGq2-1">
          <mxGeometry x="20" y="160" width="60" height="30" as="geometry" />
        </mxCell>
        <mxCell id="1wOoHc2vRw_3muNbEGq2-16" value="&lt;span style=&quot;font-size: 16px;&quot;&gt;2&lt;/span&gt;" style="text;html=1;whiteSpace=wrap;strokeColor=none;fillColor=none;align=center;verticalAlign=middle;rounded=0;" vertex="1" parent="1wOoHc2vRw_3muNbEGq2-1">
          <mxGeometry x="20" y="225" width="60" height="30" as="geometry" />
        </mxCell>
        <mxCell id="1wOoHc2vRw_3muNbEGq2-17" value="&lt;font style=&quot;font-size: 16px;&quot;&gt;3&lt;/font&gt;" style="text;html=1;whiteSpace=wrap;strokeColor=none;fillColor=none;align=center;verticalAlign=middle;rounded=0;" vertex="1" parent="1wOoHc2vRw_3muNbEGq2-1">
          <mxGeometry x="20" y="285" width="60" height="30" as="geometry" />
        </mxCell>
        <mxCell id="1wOoHc2vRw_3muNbEGq2-18" value="&lt;font style=&quot;font-size: 16px;&quot;&gt;4&lt;/font&gt;" style="text;html=1;whiteSpace=wrap;strokeColor=none;fillColor=none;align=center;verticalAlign=middle;rounded=0;" vertex="1" parent="1wOoHc2vRw_3muNbEGq2-1">
          <mxGeometry x="20" y="340" width="60" height="30" as="geometry" />
        </mxCell>
        <mxCell id="1wOoHc2vRw_3muNbEGq2-19" value="&lt;font style=&quot;font-size: 16px;&quot;&gt;5&lt;/font&gt;" style="text;html=1;whiteSpace=wrap;strokeColor=none;fillColor=none;align=center;verticalAlign=middle;rounded=0;" vertex="1" parent="1wOoHc2vRw_3muNbEGq2-1">
          <mxGeometry x="20" y="405" width="60" height="30" as="geometry" />
        </mxCell>
        <mxCell id="1wOoHc2vRw_3muNbEGq2-20" value="&lt;font style=&quot;font-size: 16px;&quot;&gt;6&lt;/font&gt;" style="text;html=1;whiteSpace=wrap;strokeColor=none;fillColor=none;align=center;verticalAlign=middle;rounded=0;" vertex="1" parent="1wOoHc2vRw_3muNbEGq2-1">
          <mxGeometry x="20" y="465" width="60" height="30" as="geometry" />
        </mxCell>
        <mxCell id="1wOoHc2vRw_3muNbEGq2-21" value="19" style="rounded=0;whiteSpace=wrap;html=1;" vertex="1" parent="1wOoHc2vRw_3muNbEGq2-1">
          <mxGeometry x="280" y="400" width="120" height="40" as="geometry" />
        </mxCell>
        <mxCell id="1wOoHc2vRw_3muNbEGq2-22" value="8" style="rounded=0;whiteSpace=wrap;html=1;" vertex="1" parent="1wOoHc2vRw_3muNbEGq2-1">
          <mxGeometry x="280" y="160" width="120" height="40" as="geometry" />
        </mxCell>
        <mxCell id="1wOoHc2vRw_3muNbEGq2-23" value="4" style="rounded=0;whiteSpace=wrap;html=1;" vertex="1" parent="1wOoHc2vRw_3muNbEGq2-1">
          <mxGeometry x="280" y="340" width="120" height="40" as="geometry" />
        </mxCell>
        <mxCell id="NNgSltj_T2NIxe9wQd-p-1" value="37" style="rounded=0;whiteSpace=wrap;html=1;" vertex="1" parent="1wOoHc2vRw_3muNbEGq2-1">
          <mxGeometry x="280" y="220" width="120" height="40" as="geometry" />
        </mxCell>
      </root>
    </mxGraphModel>
  </diagram>
  <diagram name="Cópia do Cópia do Cópia do Cópia do Cópia do Cópia do Cópia do Cópia do Cópia do Cópia do Página-1" id="hZ74glv_6pPHENMtcuMO">
    <mxGraphModel dx="2024" dy="834" grid="1" gridSize="10" guides="1" tooltips="1" connect="1" arrows="1" fold="1" page="1" pageScale="1" pageWidth="827" pageHeight="1169" math="0" shadow="0">
      <root>
        <mxCell id="62_V4UGCN-bZnkmk-fR--0" />
        <mxCell id="62_V4UGCN-bZnkmk-fR--1" parent="62_V4UGCN-bZnkmk-fR--0" />
        <mxCell id="62_V4UGCN-bZnkmk-fR--2" value="" style="rounded=0;whiteSpace=wrap;html=1;" vertex="1" parent="62_V4UGCN-bZnkmk-fR--1">
          <mxGeometry x="260" y="140" width="120" height="60" as="geometry" />
        </mxCell>
        <mxCell id="62_V4UGCN-bZnkmk-fR--3" style="edgeStyle=orthogonalEdgeStyle;rounded=0;orthogonalLoop=1;jettySize=auto;html=1;exitX=1;exitY=0.5;exitDx=0;exitDy=0;entryX=0;entryY=0.5;entryDx=0;entryDy=0;" edge="1" parent="62_V4UGCN-bZnkmk-fR--1" source="62_V4UGCN-bZnkmk-fR--4" target="62_V4UGCN-bZnkmk-fR--23">
          <mxGeometry relative="1" as="geometry">
            <mxPoint x="470" y="230" as="targetPoint" />
          </mxGeometry>
        </mxCell>
        <mxCell id="62_V4UGCN-bZnkmk-fR--4" value="15" style="rounded=0;whiteSpace=wrap;html=1;" vertex="1" parent="62_V4UGCN-bZnkmk-fR--1">
          <mxGeometry x="260" y="200" width="120" height="60" as="geometry" />
        </mxCell>
        <mxCell id="62_V4UGCN-bZnkmk-fR--5" style="edgeStyle=orthogonalEdgeStyle;rounded=0;orthogonalLoop=1;jettySize=auto;html=1;" edge="1" parent="62_V4UGCN-bZnkmk-fR--1" source="62_V4UGCN-bZnkmk-fR--6">
          <mxGeometry relative="1" as="geometry">
            <mxPoint x="460" y="290" as="targetPoint" />
          </mxGeometry>
        </mxCell>
        <mxCell id="62_V4UGCN-bZnkmk-fR--6" value="51" style="rounded=0;whiteSpace=wrap;html=1;" vertex="1" parent="62_V4UGCN-bZnkmk-fR--1">
          <mxGeometry x="260" y="260" width="120" height="60" as="geometry" />
        </mxCell>
        <mxCell id="62_V4UGCN-bZnkmk-fR--7" value="17" style="rounded=0;whiteSpace=wrap;html=1;" vertex="1" parent="62_V4UGCN-bZnkmk-fR--1">
          <mxGeometry x="260" y="320" width="120" height="60" as="geometry" />
        </mxCell>
        <mxCell id="62_V4UGCN-bZnkmk-fR--8" style="edgeStyle=orthogonalEdgeStyle;rounded=0;orthogonalLoop=1;jettySize=auto;html=1;" edge="1" parent="62_V4UGCN-bZnkmk-fR--1" source="62_V4UGCN-bZnkmk-fR--9" target="62_V4UGCN-bZnkmk-fR--24">
          <mxGeometry relative="1" as="geometry" />
        </mxCell>
        <mxCell id="62_V4UGCN-bZnkmk-fR--9" value="81" style="rounded=0;whiteSpace=wrap;html=1;" vertex="1" parent="62_V4UGCN-bZnkmk-fR--1">
          <mxGeometry x="260" y="380" width="120" height="60" as="geometry" />
        </mxCell>
        <mxCell id="62_V4UGCN-bZnkmk-fR--10" style="edgeStyle=orthogonalEdgeStyle;rounded=0;orthogonalLoop=1;jettySize=auto;html=1;entryX=0;entryY=0.5;entryDx=0;entryDy=0;" edge="1" parent="62_V4UGCN-bZnkmk-fR--1" source="62_V4UGCN-bZnkmk-fR--11" target="62_V4UGCN-bZnkmk-fR--22">
          <mxGeometry relative="1" as="geometry">
            <mxPoint x="460" y="470" as="targetPoint" />
          </mxGeometry>
        </mxCell>
        <mxCell id="62_V4UGCN-bZnkmk-fR--11" value="47" style="rounded=0;whiteSpace=wrap;html=1;" vertex="1" parent="62_V4UGCN-bZnkmk-fR--1">
          <mxGeometry x="260" y="440" width="120" height="60" as="geometry" />
        </mxCell>
        <mxCell id="62_V4UGCN-bZnkmk-fR--12" value="27" style="rounded=0;whiteSpace=wrap;html=1;" vertex="1" parent="62_V4UGCN-bZnkmk-fR--1">
          <mxGeometry x="260" y="500" width="120" height="60" as="geometry" />
        </mxCell>
        <mxCell id="62_V4UGCN-bZnkmk-fR--13" value="&lt;span style=&quot;font-size: 16px;&quot;&gt;Remover 51 e 19&lt;/span&gt;" style="text;html=1;whiteSpace=wrap;strokeColor=none;fillColor=none;align=center;verticalAlign=middle;rounded=0;" vertex="1" parent="62_V4UGCN-bZnkmk-fR--1">
          <mxGeometry x="70" y="30" width="260" height="30" as="geometry" />
        </mxCell>
        <mxCell id="62_V4UGCN-bZnkmk-fR--14" value="&lt;font style=&quot;font-size: 16px;&quot;&gt;Tamanho 7&lt;/font&gt;" style="text;html=1;whiteSpace=wrap;strokeColor=none;fillColor=none;align=center;verticalAlign=middle;rounded=0;" vertex="1" parent="62_V4UGCN-bZnkmk-fR--1">
          <mxGeometry x="430" y="30" width="120" height="30" as="geometry" />
        </mxCell>
        <mxCell id="62_V4UGCN-bZnkmk-fR--15" value="&lt;font style=&quot;font-size: 16px;&quot;&gt;0&lt;/font&gt;" style="text;html=1;whiteSpace=wrap;strokeColor=none;fillColor=none;align=center;verticalAlign=middle;rounded=0;" vertex="1" parent="62_V4UGCN-bZnkmk-fR--1">
          <mxGeometry x="200" y="155" width="60" height="30" as="geometry" />
        </mxCell>
        <mxCell id="62_V4UGCN-bZnkmk-fR--16" value="&lt;font style=&quot;font-size: 16px;&quot;&gt;1&lt;/font&gt;" style="text;html=1;whiteSpace=wrap;strokeColor=none;fillColor=none;align=center;verticalAlign=middle;rounded=0;" vertex="1" parent="62_V4UGCN-bZnkmk-fR--1">
          <mxGeometry x="200" y="210" width="60" height="30" as="geometry" />
        </mxCell>
        <mxCell id="62_V4UGCN-bZnkmk-fR--17" value="&lt;span style=&quot;font-size: 16px;&quot;&gt;2&lt;/span&gt;" style="text;html=1;whiteSpace=wrap;strokeColor=none;fillColor=none;align=center;verticalAlign=middle;rounded=0;" vertex="1" parent="62_V4UGCN-bZnkmk-fR--1">
          <mxGeometry x="200" y="275" width="60" height="30" as="geometry" />
        </mxCell>
        <mxCell id="62_V4UGCN-bZnkmk-fR--18" value="&lt;font style=&quot;font-size: 16px;&quot;&gt;3&lt;/font&gt;" style="text;html=1;whiteSpace=wrap;strokeColor=none;fillColor=none;align=center;verticalAlign=middle;rounded=0;" vertex="1" parent="62_V4UGCN-bZnkmk-fR--1">
          <mxGeometry x="200" y="335" width="60" height="30" as="geometry" />
        </mxCell>
        <mxCell id="62_V4UGCN-bZnkmk-fR--19" value="&lt;font style=&quot;font-size: 16px;&quot;&gt;4&lt;/font&gt;" style="text;html=1;whiteSpace=wrap;strokeColor=none;fillColor=none;align=center;verticalAlign=middle;rounded=0;" vertex="1" parent="62_V4UGCN-bZnkmk-fR--1">
          <mxGeometry x="200" y="390" width="60" height="30" as="geometry" />
        </mxCell>
        <mxCell id="62_V4UGCN-bZnkmk-fR--20" value="&lt;font style=&quot;font-size: 16px;&quot;&gt;5&lt;/font&gt;" style="text;html=1;whiteSpace=wrap;strokeColor=none;fillColor=none;align=center;verticalAlign=middle;rounded=0;" vertex="1" parent="62_V4UGCN-bZnkmk-fR--1">
          <mxGeometry x="200" y="455" width="60" height="30" as="geometry" />
        </mxCell>
        <mxCell id="62_V4UGCN-bZnkmk-fR--21" value="&lt;font style=&quot;font-size: 16px;&quot;&gt;6&lt;/font&gt;" style="text;html=1;whiteSpace=wrap;strokeColor=none;fillColor=none;align=center;verticalAlign=middle;rounded=0;" vertex="1" parent="62_V4UGCN-bZnkmk-fR--1">
          <mxGeometry x="200" y="515" width="60" height="30" as="geometry" />
        </mxCell>
        <mxCell id="62_V4UGCN-bZnkmk-fR--22" value="19" style="rounded=0;whiteSpace=wrap;html=1;" vertex="1" parent="62_V4UGCN-bZnkmk-fR--1">
          <mxGeometry x="460" y="450" width="120" height="40" as="geometry" />
        </mxCell>
        <mxCell id="62_V4UGCN-bZnkmk-fR--23" value="8" style="rounded=0;whiteSpace=wrap;html=1;" vertex="1" parent="62_V4UGCN-bZnkmk-fR--1">
          <mxGeometry x="460" y="210" width="120" height="40" as="geometry" />
        </mxCell>
        <mxCell id="62_V4UGCN-bZnkmk-fR--24" value="4" style="rounded=0;whiteSpace=wrap;html=1;" vertex="1" parent="62_V4UGCN-bZnkmk-fR--1">
          <mxGeometry x="460" y="390" width="120" height="40" as="geometry" />
        </mxCell>
        <mxCell id="62_V4UGCN-bZnkmk-fR--25" value="37" style="rounded=0;whiteSpace=wrap;html=1;" vertex="1" parent="62_V4UGCN-bZnkmk-fR--1">
          <mxGeometry x="460" y="270" width="120" height="40" as="geometry" />
        </mxCell>
        <mxCell id="THGcLolXxEgsR5wNAkgC-1" style="edgeStyle=orthogonalEdgeStyle;rounded=0;orthogonalLoop=1;jettySize=auto;html=1;exitX=1;exitY=0.5;exitDx=0;exitDy=0;" edge="1" parent="62_V4UGCN-bZnkmk-fR--1" source="THGcLolXxEgsR5wNAkgC-0" target="62_V4UGCN-bZnkmk-fR--6">
          <mxGeometry relative="1" as="geometry" />
        </mxCell>
        <mxCell id="THGcLolXxEgsR5wNAkgC-0" value="Aux" style="rounded=0;whiteSpace=wrap;html=1;" vertex="1" parent="62_V4UGCN-bZnkmk-fR--1">
          <mxGeometry x="50" y="270" width="120" height="40" as="geometry" />
        </mxCell>
      </root>
    </mxGraphModel>
  </diagram>
  <diagram name="Cópia do Cópia do Cópia do Cópia do Cópia do Cópia do Cópia do Cópia do Cópia do Cópia do Cópia do Página-1" id="YQYjcjOtX0foLLEECPEJ">
    <mxGraphModel dx="2024" dy="834" grid="1" gridSize="10" guides="1" tooltips="1" connect="1" arrows="1" fold="1" page="1" pageScale="1" pageWidth="827" pageHeight="1169" math="0" shadow="0">
      <root>
        <mxCell id="SLIoR6kJkF2LY3B4xT3H-0" />
        <mxCell id="SLIoR6kJkF2LY3B4xT3H-1" parent="SLIoR6kJkF2LY3B4xT3H-0" />
        <mxCell id="SLIoR6kJkF2LY3B4xT3H-2" value="" style="rounded=0;whiteSpace=wrap;html=1;" vertex="1" parent="SLIoR6kJkF2LY3B4xT3H-1">
          <mxGeometry x="260" y="140" width="120" height="60" as="geometry" />
        </mxCell>
        <mxCell id="SLIoR6kJkF2LY3B4xT3H-3" style="edgeStyle=orthogonalEdgeStyle;rounded=0;orthogonalLoop=1;jettySize=auto;html=1;exitX=1;exitY=0.5;exitDx=0;exitDy=0;entryX=0;entryY=0.5;entryDx=0;entryDy=0;" edge="1" parent="SLIoR6kJkF2LY3B4xT3H-1" source="SLIoR6kJkF2LY3B4xT3H-4" target="SLIoR6kJkF2LY3B4xT3H-23">
          <mxGeometry relative="1" as="geometry">
            <mxPoint x="470" y="230" as="targetPoint" />
          </mxGeometry>
        </mxCell>
        <mxCell id="SLIoR6kJkF2LY3B4xT3H-4" value="15" style="rounded=0;whiteSpace=wrap;html=1;" vertex="1" parent="SLIoR6kJkF2LY3B4xT3H-1">
          <mxGeometry x="260" y="200" width="120" height="60" as="geometry" />
        </mxCell>
        <mxCell id="SLIoR6kJkF2LY3B4xT3H-5" style="edgeStyle=orthogonalEdgeStyle;rounded=0;orthogonalLoop=1;jettySize=auto;html=1;" edge="1" parent="SLIoR6kJkF2LY3B4xT3H-1" source="SLIoR6kJkF2LY3B4xT3H-6">
          <mxGeometry relative="1" as="geometry">
            <mxPoint x="460" y="290" as="targetPoint" />
          </mxGeometry>
        </mxCell>
        <mxCell id="SLIoR6kJkF2LY3B4xT3H-6" value="51" style="rounded=0;whiteSpace=wrap;html=1;" vertex="1" parent="SLIoR6kJkF2LY3B4xT3H-1">
          <mxGeometry x="260" y="260" width="120" height="60" as="geometry" />
        </mxCell>
        <mxCell id="SLIoR6kJkF2LY3B4xT3H-7" value="17" style="rounded=0;whiteSpace=wrap;html=1;" vertex="1" parent="SLIoR6kJkF2LY3B4xT3H-1">
          <mxGeometry x="260" y="320" width="120" height="60" as="geometry" />
        </mxCell>
        <mxCell id="SLIoR6kJkF2LY3B4xT3H-8" style="edgeStyle=orthogonalEdgeStyle;rounded=0;orthogonalLoop=1;jettySize=auto;html=1;" edge="1" parent="SLIoR6kJkF2LY3B4xT3H-1" source="SLIoR6kJkF2LY3B4xT3H-9" target="SLIoR6kJkF2LY3B4xT3H-24">
          <mxGeometry relative="1" as="geometry" />
        </mxCell>
        <mxCell id="SLIoR6kJkF2LY3B4xT3H-9" value="81" style="rounded=0;whiteSpace=wrap;html=1;" vertex="1" parent="SLIoR6kJkF2LY3B4xT3H-1">
          <mxGeometry x="260" y="380" width="120" height="60" as="geometry" />
        </mxCell>
        <mxCell id="SLIoR6kJkF2LY3B4xT3H-10" style="edgeStyle=orthogonalEdgeStyle;rounded=0;orthogonalLoop=1;jettySize=auto;html=1;entryX=0;entryY=0.5;entryDx=0;entryDy=0;" edge="1" parent="SLIoR6kJkF2LY3B4xT3H-1" source="SLIoR6kJkF2LY3B4xT3H-11" target="SLIoR6kJkF2LY3B4xT3H-22">
          <mxGeometry relative="1" as="geometry">
            <mxPoint x="460" y="470" as="targetPoint" />
          </mxGeometry>
        </mxCell>
        <mxCell id="SLIoR6kJkF2LY3B4xT3H-11" value="47" style="rounded=0;whiteSpace=wrap;html=1;" vertex="1" parent="SLIoR6kJkF2LY3B4xT3H-1">
          <mxGeometry x="260" y="440" width="120" height="60" as="geometry" />
        </mxCell>
        <mxCell id="SLIoR6kJkF2LY3B4xT3H-12" value="27" style="rounded=0;whiteSpace=wrap;html=1;" vertex="1" parent="SLIoR6kJkF2LY3B4xT3H-1">
          <mxGeometry x="260" y="500" width="120" height="60" as="geometry" />
        </mxCell>
        <mxCell id="SLIoR6kJkF2LY3B4xT3H-13" value="&lt;span style=&quot;font-size: 16px;&quot;&gt;Remover 51 e 19&lt;/span&gt;" style="text;html=1;whiteSpace=wrap;strokeColor=none;fillColor=none;align=center;verticalAlign=middle;rounded=0;" vertex="1" parent="SLIoR6kJkF2LY3B4xT3H-1">
          <mxGeometry x="70" y="30" width="260" height="30" as="geometry" />
        </mxCell>
        <mxCell id="SLIoR6kJkF2LY3B4xT3H-14" value="&lt;font style=&quot;font-size: 16px;&quot;&gt;Tamanho 7&lt;/font&gt;" style="text;html=1;whiteSpace=wrap;strokeColor=none;fillColor=none;align=center;verticalAlign=middle;rounded=0;" vertex="1" parent="SLIoR6kJkF2LY3B4xT3H-1">
          <mxGeometry x="430" y="30" width="120" height="30" as="geometry" />
        </mxCell>
        <mxCell id="SLIoR6kJkF2LY3B4xT3H-15" value="&lt;font style=&quot;font-size: 16px;&quot;&gt;0&lt;/font&gt;" style="text;html=1;whiteSpace=wrap;strokeColor=none;fillColor=none;align=center;verticalAlign=middle;rounded=0;" vertex="1" parent="SLIoR6kJkF2LY3B4xT3H-1">
          <mxGeometry x="200" y="155" width="60" height="30" as="geometry" />
        </mxCell>
        <mxCell id="SLIoR6kJkF2LY3B4xT3H-16" value="&lt;font style=&quot;font-size: 16px;&quot;&gt;1&lt;/font&gt;" style="text;html=1;whiteSpace=wrap;strokeColor=none;fillColor=none;align=center;verticalAlign=middle;rounded=0;" vertex="1" parent="SLIoR6kJkF2LY3B4xT3H-1">
          <mxGeometry x="200" y="210" width="60" height="30" as="geometry" />
        </mxCell>
        <mxCell id="SLIoR6kJkF2LY3B4xT3H-17" value="&lt;span style=&quot;font-size: 16px;&quot;&gt;2&lt;/span&gt;" style="text;html=1;whiteSpace=wrap;strokeColor=none;fillColor=none;align=center;verticalAlign=middle;rounded=0;" vertex="1" parent="SLIoR6kJkF2LY3B4xT3H-1">
          <mxGeometry x="200" y="275" width="60" height="30" as="geometry" />
        </mxCell>
        <mxCell id="SLIoR6kJkF2LY3B4xT3H-18" value="&lt;font style=&quot;font-size: 16px;&quot;&gt;3&lt;/font&gt;" style="text;html=1;whiteSpace=wrap;strokeColor=none;fillColor=none;align=center;verticalAlign=middle;rounded=0;" vertex="1" parent="SLIoR6kJkF2LY3B4xT3H-1">
          <mxGeometry x="200" y="335" width="60" height="30" as="geometry" />
        </mxCell>
        <mxCell id="SLIoR6kJkF2LY3B4xT3H-19" value="&lt;font style=&quot;font-size: 16px;&quot;&gt;4&lt;/font&gt;" style="text;html=1;whiteSpace=wrap;strokeColor=none;fillColor=none;align=center;verticalAlign=middle;rounded=0;" vertex="1" parent="SLIoR6kJkF2LY3B4xT3H-1">
          <mxGeometry x="200" y="390" width="60" height="30" as="geometry" />
        </mxCell>
        <mxCell id="SLIoR6kJkF2LY3B4xT3H-20" value="&lt;font style=&quot;font-size: 16px;&quot;&gt;5&lt;/font&gt;" style="text;html=1;whiteSpace=wrap;strokeColor=none;fillColor=none;align=center;verticalAlign=middle;rounded=0;" vertex="1" parent="SLIoR6kJkF2LY3B4xT3H-1">
          <mxGeometry x="200" y="455" width="60" height="30" as="geometry" />
        </mxCell>
        <mxCell id="SLIoR6kJkF2LY3B4xT3H-21" value="&lt;font style=&quot;font-size: 16px;&quot;&gt;6&lt;/font&gt;" style="text;html=1;whiteSpace=wrap;strokeColor=none;fillColor=none;align=center;verticalAlign=middle;rounded=0;" vertex="1" parent="SLIoR6kJkF2LY3B4xT3H-1">
          <mxGeometry x="200" y="515" width="60" height="30" as="geometry" />
        </mxCell>
        <mxCell id="SLIoR6kJkF2LY3B4xT3H-22" value="19" style="rounded=0;whiteSpace=wrap;html=1;" vertex="1" parent="SLIoR6kJkF2LY3B4xT3H-1">
          <mxGeometry x="460" y="450" width="120" height="40" as="geometry" />
        </mxCell>
        <mxCell id="SLIoR6kJkF2LY3B4xT3H-23" value="8" style="rounded=0;whiteSpace=wrap;html=1;" vertex="1" parent="SLIoR6kJkF2LY3B4xT3H-1">
          <mxGeometry x="460" y="210" width="120" height="40" as="geometry" />
        </mxCell>
        <mxCell id="SLIoR6kJkF2LY3B4xT3H-24" value="4" style="rounded=0;whiteSpace=wrap;html=1;" vertex="1" parent="SLIoR6kJkF2LY3B4xT3H-1">
          <mxGeometry x="460" y="390" width="120" height="40" as="geometry" />
        </mxCell>
        <mxCell id="SLIoR6kJkF2LY3B4xT3H-25" value="37" style="rounded=0;whiteSpace=wrap;html=1;" vertex="1" parent="SLIoR6kJkF2LY3B4xT3H-1">
          <mxGeometry x="460" y="270" width="120" height="40" as="geometry" />
        </mxCell>
        <mxCell id="SLIoR6kJkF2LY3B4xT3H-26" style="edgeStyle=orthogonalEdgeStyle;rounded=0;orthogonalLoop=1;jettySize=auto;html=1;exitX=1;exitY=0.5;exitDx=0;exitDy=0;" edge="1" parent="SLIoR6kJkF2LY3B4xT3H-1" source="SLIoR6kJkF2LY3B4xT3H-27" target="SLIoR6kJkF2LY3B4xT3H-6">
          <mxGeometry relative="1" as="geometry" />
        </mxCell>
        <mxCell id="SLIoR6kJkF2LY3B4xT3H-27" value="Aux" style="rounded=0;whiteSpace=wrap;html=1;" vertex="1" parent="SLIoR6kJkF2LY3B4xT3H-1">
          <mxGeometry x="50" y="270" width="120" height="40" as="geometry" />
        </mxCell>
        <mxCell id="vyWlkZr70aLpW5PG5e1L-0" value="" style="verticalLabelPosition=bottom;verticalAlign=top;html=1;shape=mxgraph.basic.x;fillColor=light-dark(#A20025,#FF0000);fontColor=#ffffff;strokeColor=#6F0000;" vertex="1" parent="SLIoR6kJkF2LY3B4xT3H-1">
          <mxGeometry x="285" y="260" width="70" height="60" as="geometry" />
        </mxCell>
      </root>
    </mxGraphModel>
  </diagram>
  <diagram name="Cópia do Cópia do Cópia do Cópia do Cópia do Cópia do Cópia do Cópia do Cópia do Cópia do Cópia do Cópia do Página-1" id="hU7fhcmkYqxTif8hKQEu">
    <mxGraphModel dx="2024" dy="834" grid="1" gridSize="10" guides="1" tooltips="1" connect="1" arrows="1" fold="1" page="1" pageScale="1" pageWidth="827" pageHeight="1169" math="0" shadow="0">
      <root>
        <mxCell id="VuLAKuPwdzDA6MeNu1FC-0" />
        <mxCell id="VuLAKuPwdzDA6MeNu1FC-1" parent="VuLAKuPwdzDA6MeNu1FC-0" />
        <mxCell id="VuLAKuPwdzDA6MeNu1FC-2" value="" style="rounded=0;whiteSpace=wrap;html=1;" vertex="1" parent="VuLAKuPwdzDA6MeNu1FC-1">
          <mxGeometry x="260" y="140" width="120" height="60" as="geometry" />
        </mxCell>
        <mxCell id="VuLAKuPwdzDA6MeNu1FC-3" style="edgeStyle=orthogonalEdgeStyle;rounded=0;orthogonalLoop=1;jettySize=auto;html=1;exitX=1;exitY=0.5;exitDx=0;exitDy=0;entryX=0;entryY=0.5;entryDx=0;entryDy=0;" edge="1" parent="VuLAKuPwdzDA6MeNu1FC-1" source="VuLAKuPwdzDA6MeNu1FC-4" target="VuLAKuPwdzDA6MeNu1FC-23">
          <mxGeometry relative="1" as="geometry">
            <mxPoint x="470" y="230" as="targetPoint" />
          </mxGeometry>
        </mxCell>
        <mxCell id="VuLAKuPwdzDA6MeNu1FC-4" value="15" style="rounded=0;whiteSpace=wrap;html=1;" vertex="1" parent="VuLAKuPwdzDA6MeNu1FC-1">
          <mxGeometry x="260" y="200" width="120" height="60" as="geometry" />
        </mxCell>
        <mxCell id="VuLAKuPwdzDA6MeNu1FC-6" value="37" style="rounded=0;whiteSpace=wrap;html=1;" vertex="1" parent="VuLAKuPwdzDA6MeNu1FC-1">
          <mxGeometry x="260" y="260" width="120" height="60" as="geometry" />
        </mxCell>
        <mxCell id="VuLAKuPwdzDA6MeNu1FC-7" value="17" style="rounded=0;whiteSpace=wrap;html=1;" vertex="1" parent="VuLAKuPwdzDA6MeNu1FC-1">
          <mxGeometry x="260" y="320" width="120" height="60" as="geometry" />
        </mxCell>
        <mxCell id="VuLAKuPwdzDA6MeNu1FC-8" style="edgeStyle=orthogonalEdgeStyle;rounded=0;orthogonalLoop=1;jettySize=auto;html=1;" edge="1" parent="VuLAKuPwdzDA6MeNu1FC-1" source="VuLAKuPwdzDA6MeNu1FC-9" target="VuLAKuPwdzDA6MeNu1FC-24">
          <mxGeometry relative="1" as="geometry" />
        </mxCell>
        <mxCell id="VuLAKuPwdzDA6MeNu1FC-9" value="81" style="rounded=0;whiteSpace=wrap;html=1;" vertex="1" parent="VuLAKuPwdzDA6MeNu1FC-1">
          <mxGeometry x="260" y="380" width="120" height="60" as="geometry" />
        </mxCell>
        <mxCell id="VuLAKuPwdzDA6MeNu1FC-10" style="edgeStyle=orthogonalEdgeStyle;rounded=0;orthogonalLoop=1;jettySize=auto;html=1;entryX=0;entryY=0.5;entryDx=0;entryDy=0;" edge="1" parent="VuLAKuPwdzDA6MeNu1FC-1" source="VuLAKuPwdzDA6MeNu1FC-11" target="VuLAKuPwdzDA6MeNu1FC-22">
          <mxGeometry relative="1" as="geometry">
            <mxPoint x="460" y="470" as="targetPoint" />
          </mxGeometry>
        </mxCell>
        <mxCell id="VuLAKuPwdzDA6MeNu1FC-11" value="47" style="rounded=0;whiteSpace=wrap;html=1;" vertex="1" parent="VuLAKuPwdzDA6MeNu1FC-1">
          <mxGeometry x="260" y="440" width="120" height="60" as="geometry" />
        </mxCell>
        <mxCell id="VuLAKuPwdzDA6MeNu1FC-12" value="27" style="rounded=0;whiteSpace=wrap;html=1;" vertex="1" parent="VuLAKuPwdzDA6MeNu1FC-1">
          <mxGeometry x="260" y="500" width="120" height="60" as="geometry" />
        </mxCell>
        <mxCell id="VuLAKuPwdzDA6MeNu1FC-13" value="&lt;span style=&quot;font-size: 16px;&quot;&gt;Remover 51 e 19&lt;/span&gt;" style="text;html=1;whiteSpace=wrap;strokeColor=none;fillColor=none;align=center;verticalAlign=middle;rounded=0;" vertex="1" parent="VuLAKuPwdzDA6MeNu1FC-1">
          <mxGeometry x="70" y="30" width="260" height="30" as="geometry" />
        </mxCell>
        <mxCell id="VuLAKuPwdzDA6MeNu1FC-14" value="&lt;font style=&quot;font-size: 16px;&quot;&gt;Tamanho 7&lt;/font&gt;" style="text;html=1;whiteSpace=wrap;strokeColor=none;fillColor=none;align=center;verticalAlign=middle;rounded=0;" vertex="1" parent="VuLAKuPwdzDA6MeNu1FC-1">
          <mxGeometry x="430" y="30" width="120" height="30" as="geometry" />
        </mxCell>
        <mxCell id="VuLAKuPwdzDA6MeNu1FC-15" value="&lt;font style=&quot;font-size: 16px;&quot;&gt;0&lt;/font&gt;" style="text;html=1;whiteSpace=wrap;strokeColor=none;fillColor=none;align=center;verticalAlign=middle;rounded=0;" vertex="1" parent="VuLAKuPwdzDA6MeNu1FC-1">
          <mxGeometry x="200" y="155" width="60" height="30" as="geometry" />
        </mxCell>
        <mxCell id="VuLAKuPwdzDA6MeNu1FC-16" value="&lt;font style=&quot;font-size: 16px;&quot;&gt;1&lt;/font&gt;" style="text;html=1;whiteSpace=wrap;strokeColor=none;fillColor=none;align=center;verticalAlign=middle;rounded=0;" vertex="1" parent="VuLAKuPwdzDA6MeNu1FC-1">
          <mxGeometry x="200" y="210" width="60" height="30" as="geometry" />
        </mxCell>
        <mxCell id="VuLAKuPwdzDA6MeNu1FC-17" value="&lt;span style=&quot;font-size: 16px;&quot;&gt;2&lt;/span&gt;" style="text;html=1;whiteSpace=wrap;strokeColor=none;fillColor=none;align=center;verticalAlign=middle;rounded=0;" vertex="1" parent="VuLAKuPwdzDA6MeNu1FC-1">
          <mxGeometry x="200" y="275" width="60" height="30" as="geometry" />
        </mxCell>
        <mxCell id="VuLAKuPwdzDA6MeNu1FC-18" value="&lt;font style=&quot;font-size: 16px;&quot;&gt;3&lt;/font&gt;" style="text;html=1;whiteSpace=wrap;strokeColor=none;fillColor=none;align=center;verticalAlign=middle;rounded=0;" vertex="1" parent="VuLAKuPwdzDA6MeNu1FC-1">
          <mxGeometry x="200" y="335" width="60" height="30" as="geometry" />
        </mxCell>
        <mxCell id="VuLAKuPwdzDA6MeNu1FC-19" value="&lt;font style=&quot;font-size: 16px;&quot;&gt;4&lt;/font&gt;" style="text;html=1;whiteSpace=wrap;strokeColor=none;fillColor=none;align=center;verticalAlign=middle;rounded=0;" vertex="1" parent="VuLAKuPwdzDA6MeNu1FC-1">
          <mxGeometry x="200" y="390" width="60" height="30" as="geometry" />
        </mxCell>
        <mxCell id="VuLAKuPwdzDA6MeNu1FC-20" value="&lt;font style=&quot;font-size: 16px;&quot;&gt;5&lt;/font&gt;" style="text;html=1;whiteSpace=wrap;strokeColor=none;fillColor=none;align=center;verticalAlign=middle;rounded=0;" vertex="1" parent="VuLAKuPwdzDA6MeNu1FC-1">
          <mxGeometry x="200" y="455" width="60" height="30" as="geometry" />
        </mxCell>
        <mxCell id="VuLAKuPwdzDA6MeNu1FC-21" value="&lt;font style=&quot;font-size: 16px;&quot;&gt;6&lt;/font&gt;" style="text;html=1;whiteSpace=wrap;strokeColor=none;fillColor=none;align=center;verticalAlign=middle;rounded=0;" vertex="1" parent="VuLAKuPwdzDA6MeNu1FC-1">
          <mxGeometry x="200" y="515" width="60" height="30" as="geometry" />
        </mxCell>
        <mxCell id="VuLAKuPwdzDA6MeNu1FC-22" value="19" style="rounded=0;whiteSpace=wrap;html=1;" vertex="1" parent="VuLAKuPwdzDA6MeNu1FC-1">
          <mxGeometry x="460" y="450" width="120" height="40" as="geometry" />
        </mxCell>
        <mxCell id="VuLAKuPwdzDA6MeNu1FC-23" value="8" style="rounded=0;whiteSpace=wrap;html=1;" vertex="1" parent="VuLAKuPwdzDA6MeNu1FC-1">
          <mxGeometry x="460" y="210" width="120" height="40" as="geometry" />
        </mxCell>
        <mxCell id="VuLAKuPwdzDA6MeNu1FC-24" value="4" style="rounded=0;whiteSpace=wrap;html=1;" vertex="1" parent="VuLAKuPwdzDA6MeNu1FC-1">
          <mxGeometry x="460" y="390" width="120" height="40" as="geometry" />
        </mxCell>
      </root>
    </mxGraphModel>
  </diagram>
  <diagram name="Cópia do Cópia do Cópia do Cópia do Cópia do Cópia do Cópia do Cópia do Cópia do Cópia do Cópia do Cópia do Cópia do Página-1" id="AeGC9Gs32k76lza_yWwZ">
    <mxGraphModel dx="2024" dy="834" grid="1" gridSize="10" guides="1" tooltips="1" connect="1" arrows="1" fold="1" page="1" pageScale="1" pageWidth="827" pageHeight="1169" math="0" shadow="0">
      <root>
        <mxCell id="xWTQHtNrY48q658TE0bR-0" />
        <mxCell id="xWTQHtNrY48q658TE0bR-1" parent="xWTQHtNrY48q658TE0bR-0" />
        <mxCell id="xWTQHtNrY48q658TE0bR-2" value="" style="rounded=0;whiteSpace=wrap;html=1;" vertex="1" parent="xWTQHtNrY48q658TE0bR-1">
          <mxGeometry x="260" y="140" width="120" height="60" as="geometry" />
        </mxCell>
        <mxCell id="xWTQHtNrY48q658TE0bR-3" style="edgeStyle=orthogonalEdgeStyle;rounded=0;orthogonalLoop=1;jettySize=auto;html=1;exitX=1;exitY=0.5;exitDx=0;exitDy=0;entryX=0;entryY=0.5;entryDx=0;entryDy=0;" edge="1" parent="xWTQHtNrY48q658TE0bR-1" source="xWTQHtNrY48q658TE0bR-4" target="xWTQHtNrY48q658TE0bR-22">
          <mxGeometry relative="1" as="geometry">
            <mxPoint x="470" y="230" as="targetPoint" />
          </mxGeometry>
        </mxCell>
        <mxCell id="xWTQHtNrY48q658TE0bR-4" value="15" style="rounded=0;whiteSpace=wrap;html=1;" vertex="1" parent="xWTQHtNrY48q658TE0bR-1">
          <mxGeometry x="260" y="200" width="120" height="60" as="geometry" />
        </mxCell>
        <mxCell id="xWTQHtNrY48q658TE0bR-5" value="37" style="rounded=0;whiteSpace=wrap;html=1;" vertex="1" parent="xWTQHtNrY48q658TE0bR-1">
          <mxGeometry x="260" y="260" width="120" height="60" as="geometry" />
        </mxCell>
        <mxCell id="xWTQHtNrY48q658TE0bR-6" value="17" style="rounded=0;whiteSpace=wrap;html=1;" vertex="1" parent="xWTQHtNrY48q658TE0bR-1">
          <mxGeometry x="260" y="320" width="120" height="60" as="geometry" />
        </mxCell>
        <mxCell id="xWTQHtNrY48q658TE0bR-7" style="edgeStyle=orthogonalEdgeStyle;rounded=0;orthogonalLoop=1;jettySize=auto;html=1;" edge="1" parent="xWTQHtNrY48q658TE0bR-1" source="xWTQHtNrY48q658TE0bR-8" target="xWTQHtNrY48q658TE0bR-23">
          <mxGeometry relative="1" as="geometry" />
        </mxCell>
        <mxCell id="xWTQHtNrY48q658TE0bR-8" value="81" style="rounded=0;whiteSpace=wrap;html=1;" vertex="1" parent="xWTQHtNrY48q658TE0bR-1">
          <mxGeometry x="260" y="380" width="120" height="60" as="geometry" />
        </mxCell>
        <mxCell id="xWTQHtNrY48q658TE0bR-9" style="edgeStyle=orthogonalEdgeStyle;rounded=0;orthogonalLoop=1;jettySize=auto;html=1;entryX=0;entryY=0.5;entryDx=0;entryDy=0;" edge="1" parent="xWTQHtNrY48q658TE0bR-1" source="xWTQHtNrY48q658TE0bR-10" target="xWTQHtNrY48q658TE0bR-21">
          <mxGeometry relative="1" as="geometry">
            <mxPoint x="460" y="470" as="targetPoint" />
          </mxGeometry>
        </mxCell>
        <mxCell id="xWTQHtNrY48q658TE0bR-10" value="47" style="rounded=0;whiteSpace=wrap;html=1;" vertex="1" parent="xWTQHtNrY48q658TE0bR-1">
          <mxGeometry x="260" y="440" width="120" height="60" as="geometry" />
        </mxCell>
        <mxCell id="xWTQHtNrY48q658TE0bR-11" value="27" style="rounded=0;whiteSpace=wrap;html=1;" vertex="1" parent="xWTQHtNrY48q658TE0bR-1">
          <mxGeometry x="260" y="500" width="120" height="60" as="geometry" />
        </mxCell>
        <mxCell id="xWTQHtNrY48q658TE0bR-12" value="&lt;span style=&quot;font-size: 16px;&quot;&gt;Remover 19&lt;/span&gt;" style="text;html=1;whiteSpace=wrap;strokeColor=none;fillColor=none;align=center;verticalAlign=middle;rounded=0;" vertex="1" parent="xWTQHtNrY48q658TE0bR-1">
          <mxGeometry x="70" y="30" width="260" height="30" as="geometry" />
        </mxCell>
        <mxCell id="xWTQHtNrY48q658TE0bR-13" value="&lt;font style=&quot;font-size: 16px;&quot;&gt;Tamanho 7&lt;/font&gt;" style="text;html=1;whiteSpace=wrap;strokeColor=none;fillColor=none;align=center;verticalAlign=middle;rounded=0;" vertex="1" parent="xWTQHtNrY48q658TE0bR-1">
          <mxGeometry x="430" y="30" width="120" height="30" as="geometry" />
        </mxCell>
        <mxCell id="xWTQHtNrY48q658TE0bR-14" value="&lt;font style=&quot;font-size: 16px;&quot;&gt;0&lt;/font&gt;" style="text;html=1;whiteSpace=wrap;strokeColor=none;fillColor=none;align=center;verticalAlign=middle;rounded=0;" vertex="1" parent="xWTQHtNrY48q658TE0bR-1">
          <mxGeometry x="200" y="155" width="60" height="30" as="geometry" />
        </mxCell>
        <mxCell id="xWTQHtNrY48q658TE0bR-15" value="&lt;font style=&quot;font-size: 16px;&quot;&gt;1&lt;/font&gt;" style="text;html=1;whiteSpace=wrap;strokeColor=none;fillColor=none;align=center;verticalAlign=middle;rounded=0;" vertex="1" parent="xWTQHtNrY48q658TE0bR-1">
          <mxGeometry x="200" y="210" width="60" height="30" as="geometry" />
        </mxCell>
        <mxCell id="xWTQHtNrY48q658TE0bR-16" value="&lt;span style=&quot;font-size: 16px;&quot;&gt;2&lt;/span&gt;" style="text;html=1;whiteSpace=wrap;strokeColor=none;fillColor=none;align=center;verticalAlign=middle;rounded=0;" vertex="1" parent="xWTQHtNrY48q658TE0bR-1">
          <mxGeometry x="200" y="275" width="60" height="30" as="geometry" />
        </mxCell>
        <mxCell id="xWTQHtNrY48q658TE0bR-17" value="&lt;font style=&quot;font-size: 16px;&quot;&gt;3&lt;/font&gt;" style="text;html=1;whiteSpace=wrap;strokeColor=none;fillColor=none;align=center;verticalAlign=middle;rounded=0;" vertex="1" parent="xWTQHtNrY48q658TE0bR-1">
          <mxGeometry x="200" y="335" width="60" height="30" as="geometry" />
        </mxCell>
        <mxCell id="xWTQHtNrY48q658TE0bR-18" value="&lt;font style=&quot;font-size: 16px;&quot;&gt;4&lt;/font&gt;" style="text;html=1;whiteSpace=wrap;strokeColor=none;fillColor=none;align=center;verticalAlign=middle;rounded=0;" vertex="1" parent="xWTQHtNrY48q658TE0bR-1">
          <mxGeometry x="200" y="390" width="60" height="30" as="geometry" />
        </mxCell>
        <mxCell id="xWTQHtNrY48q658TE0bR-19" value="&lt;font style=&quot;font-size: 16px;&quot;&gt;5&lt;/font&gt;" style="text;html=1;whiteSpace=wrap;strokeColor=none;fillColor=none;align=center;verticalAlign=middle;rounded=0;" vertex="1" parent="xWTQHtNrY48q658TE0bR-1">
          <mxGeometry x="200" y="455" width="60" height="30" as="geometry" />
        </mxCell>
        <mxCell id="xWTQHtNrY48q658TE0bR-20" value="&lt;font style=&quot;font-size: 16px;&quot;&gt;6&lt;/font&gt;" style="text;html=1;whiteSpace=wrap;strokeColor=none;fillColor=none;align=center;verticalAlign=middle;rounded=0;" vertex="1" parent="xWTQHtNrY48q658TE0bR-1">
          <mxGeometry x="200" y="515" width="60" height="30" as="geometry" />
        </mxCell>
        <mxCell id="xWTQHtNrY48q658TE0bR-21" value="19" style="rounded=0;whiteSpace=wrap;html=1;" vertex="1" parent="xWTQHtNrY48q658TE0bR-1">
          <mxGeometry x="460" y="450" width="120" height="40" as="geometry" />
        </mxCell>
        <mxCell id="xWTQHtNrY48q658TE0bR-22" value="8" style="rounded=0;whiteSpace=wrap;html=1;" vertex="1" parent="xWTQHtNrY48q658TE0bR-1">
          <mxGeometry x="460" y="210" width="120" height="40" as="geometry" />
        </mxCell>
        <mxCell id="xWTQHtNrY48q658TE0bR-23" value="4" style="rounded=0;whiteSpace=wrap;html=1;" vertex="1" parent="xWTQHtNrY48q658TE0bR-1">
          <mxGeometry x="460" y="390" width="120" height="40" as="geometry" />
        </mxCell>
        <mxCell id="SSfIuG9oB_sPsz7VDG7_-1" style="edgeStyle=orthogonalEdgeStyle;rounded=0;orthogonalLoop=1;jettySize=auto;html=1;" edge="1" parent="xWTQHtNrY48q658TE0bR-1" source="SSfIuG9oB_sPsz7VDG7_-0" target="xWTQHtNrY48q658TE0bR-21">
          <mxGeometry relative="1" as="geometry" />
        </mxCell>
        <mxCell id="SSfIuG9oB_sPsz7VDG7_-0" value="Aux" style="rounded=0;whiteSpace=wrap;html=1;" vertex="1" parent="xWTQHtNrY48q658TE0bR-1">
          <mxGeometry x="640" y="450" width="120" height="40" as="geometry" />
        </mxCell>
      </root>
    </mxGraphModel>
  </diagram>
  <diagram name="Cópia do Cópia do Cópia do Cópia do Cópia do Cópia do Cópia do Cópia do Cópia do Cópia do Cópia do Cópia do Cópia do Cópia do Página-1" id="o8twp3YylolZIZYZfqjY">
    <mxGraphModel dx="2024" dy="834" grid="1" gridSize="10" guides="1" tooltips="1" connect="1" arrows="1" fold="1" page="1" pageScale="1" pageWidth="827" pageHeight="1169" math="0" shadow="0">
      <root>
        <mxCell id="nAAZAmeKTuEQc7fJK8Id-0" />
        <mxCell id="nAAZAmeKTuEQc7fJK8Id-1" parent="nAAZAmeKTuEQc7fJK8Id-0" />
        <mxCell id="nAAZAmeKTuEQc7fJK8Id-2" value="" style="rounded=0;whiteSpace=wrap;html=1;" vertex="1" parent="nAAZAmeKTuEQc7fJK8Id-1">
          <mxGeometry x="260" y="140" width="120" height="60" as="geometry" />
        </mxCell>
        <mxCell id="nAAZAmeKTuEQc7fJK8Id-3" style="edgeStyle=orthogonalEdgeStyle;rounded=0;orthogonalLoop=1;jettySize=auto;html=1;exitX=1;exitY=0.5;exitDx=0;exitDy=0;entryX=0;entryY=0.5;entryDx=0;entryDy=0;" edge="1" parent="nAAZAmeKTuEQc7fJK8Id-1" source="nAAZAmeKTuEQc7fJK8Id-4" target="nAAZAmeKTuEQc7fJK8Id-22">
          <mxGeometry relative="1" as="geometry">
            <mxPoint x="470" y="230" as="targetPoint" />
          </mxGeometry>
        </mxCell>
        <mxCell id="nAAZAmeKTuEQc7fJK8Id-4" value="15" style="rounded=0;whiteSpace=wrap;html=1;" vertex="1" parent="nAAZAmeKTuEQc7fJK8Id-1">
          <mxGeometry x="260" y="200" width="120" height="60" as="geometry" />
        </mxCell>
        <mxCell id="nAAZAmeKTuEQc7fJK8Id-5" value="37" style="rounded=0;whiteSpace=wrap;html=1;" vertex="1" parent="nAAZAmeKTuEQc7fJK8Id-1">
          <mxGeometry x="260" y="260" width="120" height="60" as="geometry" />
        </mxCell>
        <mxCell id="nAAZAmeKTuEQc7fJK8Id-6" value="17" style="rounded=0;whiteSpace=wrap;html=1;" vertex="1" parent="nAAZAmeKTuEQc7fJK8Id-1">
          <mxGeometry x="260" y="320" width="120" height="60" as="geometry" />
        </mxCell>
        <mxCell id="nAAZAmeKTuEQc7fJK8Id-7" style="edgeStyle=orthogonalEdgeStyle;rounded=0;orthogonalLoop=1;jettySize=auto;html=1;" edge="1" parent="nAAZAmeKTuEQc7fJK8Id-1" source="nAAZAmeKTuEQc7fJK8Id-8" target="nAAZAmeKTuEQc7fJK8Id-23">
          <mxGeometry relative="1" as="geometry" />
        </mxCell>
        <mxCell id="nAAZAmeKTuEQc7fJK8Id-8" value="81" style="rounded=0;whiteSpace=wrap;html=1;" vertex="1" parent="nAAZAmeKTuEQc7fJK8Id-1">
          <mxGeometry x="260" y="380" width="120" height="60" as="geometry" />
        </mxCell>
        <mxCell id="nAAZAmeKTuEQc7fJK8Id-9" style="edgeStyle=orthogonalEdgeStyle;rounded=0;orthogonalLoop=1;jettySize=auto;html=1;entryX=0;entryY=0.5;entryDx=0;entryDy=0;" edge="1" parent="nAAZAmeKTuEQc7fJK8Id-1" source="nAAZAmeKTuEQc7fJK8Id-10" target="nAAZAmeKTuEQc7fJK8Id-21">
          <mxGeometry relative="1" as="geometry">
            <mxPoint x="460" y="470" as="targetPoint" />
          </mxGeometry>
        </mxCell>
        <mxCell id="nAAZAmeKTuEQc7fJK8Id-10" value="47" style="rounded=0;whiteSpace=wrap;html=1;" vertex="1" parent="nAAZAmeKTuEQc7fJK8Id-1">
          <mxGeometry x="260" y="440" width="120" height="60" as="geometry" />
        </mxCell>
        <mxCell id="nAAZAmeKTuEQc7fJK8Id-11" value="27" style="rounded=0;whiteSpace=wrap;html=1;" vertex="1" parent="nAAZAmeKTuEQc7fJK8Id-1">
          <mxGeometry x="260" y="500" width="120" height="60" as="geometry" />
        </mxCell>
        <mxCell id="nAAZAmeKTuEQc7fJK8Id-12" value="&lt;span style=&quot;font-size: 16px;&quot;&gt;Remover 19&lt;/span&gt;" style="text;html=1;whiteSpace=wrap;strokeColor=none;fillColor=none;align=center;verticalAlign=middle;rounded=0;" vertex="1" parent="nAAZAmeKTuEQc7fJK8Id-1">
          <mxGeometry x="70" y="30" width="260" height="30" as="geometry" />
        </mxCell>
        <mxCell id="nAAZAmeKTuEQc7fJK8Id-13" value="&lt;font style=&quot;font-size: 16px;&quot;&gt;Tamanho 7&lt;/font&gt;" style="text;html=1;whiteSpace=wrap;strokeColor=none;fillColor=none;align=center;verticalAlign=middle;rounded=0;" vertex="1" parent="nAAZAmeKTuEQc7fJK8Id-1">
          <mxGeometry x="430" y="30" width="120" height="30" as="geometry" />
        </mxCell>
        <mxCell id="nAAZAmeKTuEQc7fJK8Id-14" value="&lt;font style=&quot;font-size: 16px;&quot;&gt;0&lt;/font&gt;" style="text;html=1;whiteSpace=wrap;strokeColor=none;fillColor=none;align=center;verticalAlign=middle;rounded=0;" vertex="1" parent="nAAZAmeKTuEQc7fJK8Id-1">
          <mxGeometry x="200" y="155" width="60" height="30" as="geometry" />
        </mxCell>
        <mxCell id="nAAZAmeKTuEQc7fJK8Id-15" value="&lt;font style=&quot;font-size: 16px;&quot;&gt;1&lt;/font&gt;" style="text;html=1;whiteSpace=wrap;strokeColor=none;fillColor=none;align=center;verticalAlign=middle;rounded=0;" vertex="1" parent="nAAZAmeKTuEQc7fJK8Id-1">
          <mxGeometry x="200" y="210" width="60" height="30" as="geometry" />
        </mxCell>
        <mxCell id="nAAZAmeKTuEQc7fJK8Id-16" value="&lt;span style=&quot;font-size: 16px;&quot;&gt;2&lt;/span&gt;" style="text;html=1;whiteSpace=wrap;strokeColor=none;fillColor=none;align=center;verticalAlign=middle;rounded=0;" vertex="1" parent="nAAZAmeKTuEQc7fJK8Id-1">
          <mxGeometry x="200" y="275" width="60" height="30" as="geometry" />
        </mxCell>
        <mxCell id="nAAZAmeKTuEQc7fJK8Id-17" value="&lt;font style=&quot;font-size: 16px;&quot;&gt;3&lt;/font&gt;" style="text;html=1;whiteSpace=wrap;strokeColor=none;fillColor=none;align=center;verticalAlign=middle;rounded=0;" vertex="1" parent="nAAZAmeKTuEQc7fJK8Id-1">
          <mxGeometry x="200" y="335" width="60" height="30" as="geometry" />
        </mxCell>
        <mxCell id="nAAZAmeKTuEQc7fJK8Id-18" value="&lt;font style=&quot;font-size: 16px;&quot;&gt;4&lt;/font&gt;" style="text;html=1;whiteSpace=wrap;strokeColor=none;fillColor=none;align=center;verticalAlign=middle;rounded=0;" vertex="1" parent="nAAZAmeKTuEQc7fJK8Id-1">
          <mxGeometry x="200" y="390" width="60" height="30" as="geometry" />
        </mxCell>
        <mxCell id="nAAZAmeKTuEQc7fJK8Id-19" value="&lt;font style=&quot;font-size: 16px;&quot;&gt;5&lt;/font&gt;" style="text;html=1;whiteSpace=wrap;strokeColor=none;fillColor=none;align=center;verticalAlign=middle;rounded=0;" vertex="1" parent="nAAZAmeKTuEQc7fJK8Id-1">
          <mxGeometry x="200" y="455" width="60" height="30" as="geometry" />
        </mxCell>
        <mxCell id="nAAZAmeKTuEQc7fJK8Id-20" value="&lt;font style=&quot;font-size: 16px;&quot;&gt;6&lt;/font&gt;" style="text;html=1;whiteSpace=wrap;strokeColor=none;fillColor=none;align=center;verticalAlign=middle;rounded=0;" vertex="1" parent="nAAZAmeKTuEQc7fJK8Id-1">
          <mxGeometry x="200" y="515" width="60" height="30" as="geometry" />
        </mxCell>
        <mxCell id="nAAZAmeKTuEQc7fJK8Id-21" value="19" style="rounded=0;whiteSpace=wrap;html=1;" vertex="1" parent="nAAZAmeKTuEQc7fJK8Id-1">
          <mxGeometry x="460" y="450" width="120" height="40" as="geometry" />
        </mxCell>
        <mxCell id="nAAZAmeKTuEQc7fJK8Id-22" value="8" style="rounded=0;whiteSpace=wrap;html=1;" vertex="1" parent="nAAZAmeKTuEQc7fJK8Id-1">
          <mxGeometry x="460" y="210" width="120" height="40" as="geometry" />
        </mxCell>
        <mxCell id="nAAZAmeKTuEQc7fJK8Id-23" value="4" style="rounded=0;whiteSpace=wrap;html=1;" vertex="1" parent="nAAZAmeKTuEQc7fJK8Id-1">
          <mxGeometry x="460" y="390" width="120" height="40" as="geometry" />
        </mxCell>
        <mxCell id="nAAZAmeKTuEQc7fJK8Id-24" style="edgeStyle=orthogonalEdgeStyle;rounded=0;orthogonalLoop=1;jettySize=auto;html=1;" edge="1" parent="nAAZAmeKTuEQc7fJK8Id-1" source="nAAZAmeKTuEQc7fJK8Id-25" target="nAAZAmeKTuEQc7fJK8Id-21">
          <mxGeometry relative="1" as="geometry" />
        </mxCell>
        <mxCell id="nAAZAmeKTuEQc7fJK8Id-25" value="Aux" style="rounded=0;whiteSpace=wrap;html=1;" vertex="1" parent="nAAZAmeKTuEQc7fJK8Id-1">
          <mxGeometry x="640" y="450" width="120" height="40" as="geometry" />
        </mxCell>
        <mxCell id="DSYeavVARKZj2NR39aWP-0" value="" style="verticalLabelPosition=bottom;verticalAlign=top;html=1;shape=mxgraph.basic.x;fillColor=light-dark(#A20025,#FF0000);fontColor=#ffffff;strokeColor=#6F0000;" vertex="1" parent="nAAZAmeKTuEQc7fJK8Id-1">
          <mxGeometry x="485" y="440" width="70" height="60" as="geometry" />
        </mxCell>
      </root>
    </mxGraphModel>
  </diagram>
  <diagram name="Cópia do Cópia do Cópia do Cópia do Cópia do Cópia do Cópia do Cópia do Cópia do Cópia do Cópia do Cópia do Cópia do Cópia do Cópia do Página-1" id="B0M-rtpiPU6EcAchlfg1">
    <mxGraphModel dx="2024" dy="834" grid="1" gridSize="10" guides="1" tooltips="1" connect="1" arrows="1" fold="1" page="1" pageScale="1" pageWidth="827" pageHeight="1169" math="0" shadow="0">
      <root>
        <mxCell id="7d4XVodSia-sjYtWjZm2-0" />
        <mxCell id="7d4XVodSia-sjYtWjZm2-1" parent="7d4XVodSia-sjYtWjZm2-0" />
        <mxCell id="7d4XVodSia-sjYtWjZm2-2" value="" style="rounded=0;whiteSpace=wrap;html=1;" vertex="1" parent="7d4XVodSia-sjYtWjZm2-1">
          <mxGeometry x="260" y="140" width="120" height="60" as="geometry" />
        </mxCell>
        <mxCell id="7d4XVodSia-sjYtWjZm2-3" style="edgeStyle=orthogonalEdgeStyle;rounded=0;orthogonalLoop=1;jettySize=auto;html=1;exitX=1;exitY=0.5;exitDx=0;exitDy=0;entryX=0;entryY=0.5;entryDx=0;entryDy=0;" edge="1" parent="7d4XVodSia-sjYtWjZm2-1" source="7d4XVodSia-sjYtWjZm2-4" target="7d4XVodSia-sjYtWjZm2-22">
          <mxGeometry relative="1" as="geometry">
            <mxPoint x="470" y="230" as="targetPoint" />
          </mxGeometry>
        </mxCell>
        <mxCell id="7d4XVodSia-sjYtWjZm2-4" value="15" style="rounded=0;whiteSpace=wrap;html=1;" vertex="1" parent="7d4XVodSia-sjYtWjZm2-1">
          <mxGeometry x="260" y="200" width="120" height="60" as="geometry" />
        </mxCell>
        <mxCell id="7d4XVodSia-sjYtWjZm2-5" value="37" style="rounded=0;whiteSpace=wrap;html=1;" vertex="1" parent="7d4XVodSia-sjYtWjZm2-1">
          <mxGeometry x="260" y="260" width="120" height="60" as="geometry" />
        </mxCell>
        <mxCell id="7d4XVodSia-sjYtWjZm2-6" value="17" style="rounded=0;whiteSpace=wrap;html=1;" vertex="1" parent="7d4XVodSia-sjYtWjZm2-1">
          <mxGeometry x="260" y="320" width="120" height="60" as="geometry" />
        </mxCell>
        <mxCell id="7d4XVodSia-sjYtWjZm2-7" style="edgeStyle=orthogonalEdgeStyle;rounded=0;orthogonalLoop=1;jettySize=auto;html=1;" edge="1" parent="7d4XVodSia-sjYtWjZm2-1" source="7d4XVodSia-sjYtWjZm2-8" target="7d4XVodSia-sjYtWjZm2-23">
          <mxGeometry relative="1" as="geometry" />
        </mxCell>
        <mxCell id="7d4XVodSia-sjYtWjZm2-8" value="81" style="rounded=0;whiteSpace=wrap;html=1;" vertex="1" parent="7d4XVodSia-sjYtWjZm2-1">
          <mxGeometry x="260" y="380" width="120" height="60" as="geometry" />
        </mxCell>
        <mxCell id="7d4XVodSia-sjYtWjZm2-10" value="47" style="rounded=0;whiteSpace=wrap;html=1;" vertex="1" parent="7d4XVodSia-sjYtWjZm2-1">
          <mxGeometry x="260" y="440" width="120" height="60" as="geometry" />
        </mxCell>
        <mxCell id="7d4XVodSia-sjYtWjZm2-11" value="27" style="rounded=0;whiteSpace=wrap;html=1;" vertex="1" parent="7d4XVodSia-sjYtWjZm2-1">
          <mxGeometry x="260" y="500" width="120" height="60" as="geometry" />
        </mxCell>
        <mxCell id="7d4XVodSia-sjYtWjZm2-12" value="&lt;span style=&quot;font-size: 16px;&quot;&gt;Remover 19&lt;/span&gt;" style="text;html=1;whiteSpace=wrap;strokeColor=none;fillColor=none;align=center;verticalAlign=middle;rounded=0;" vertex="1" parent="7d4XVodSia-sjYtWjZm2-1">
          <mxGeometry x="70" y="30" width="260" height="30" as="geometry" />
        </mxCell>
        <mxCell id="7d4XVodSia-sjYtWjZm2-13" value="&lt;font style=&quot;font-size: 16px;&quot;&gt;Tamanho 7&lt;/font&gt;" style="text;html=1;whiteSpace=wrap;strokeColor=none;fillColor=none;align=center;verticalAlign=middle;rounded=0;" vertex="1" parent="7d4XVodSia-sjYtWjZm2-1">
          <mxGeometry x="430" y="30" width="120" height="30" as="geometry" />
        </mxCell>
        <mxCell id="7d4XVodSia-sjYtWjZm2-14" value="&lt;font style=&quot;font-size: 16px;&quot;&gt;0&lt;/font&gt;" style="text;html=1;whiteSpace=wrap;strokeColor=none;fillColor=none;align=center;verticalAlign=middle;rounded=0;" vertex="1" parent="7d4XVodSia-sjYtWjZm2-1">
          <mxGeometry x="200" y="155" width="60" height="30" as="geometry" />
        </mxCell>
        <mxCell id="7d4XVodSia-sjYtWjZm2-15" value="&lt;font style=&quot;font-size: 16px;&quot;&gt;1&lt;/font&gt;" style="text;html=1;whiteSpace=wrap;strokeColor=none;fillColor=none;align=center;verticalAlign=middle;rounded=0;" vertex="1" parent="7d4XVodSia-sjYtWjZm2-1">
          <mxGeometry x="200" y="210" width="60" height="30" as="geometry" />
        </mxCell>
        <mxCell id="7d4XVodSia-sjYtWjZm2-16" value="&lt;span style=&quot;font-size: 16px;&quot;&gt;2&lt;/span&gt;" style="text;html=1;whiteSpace=wrap;strokeColor=none;fillColor=none;align=center;verticalAlign=middle;rounded=0;" vertex="1" parent="7d4XVodSia-sjYtWjZm2-1">
          <mxGeometry x="200" y="275" width="60" height="30" as="geometry" />
        </mxCell>
        <mxCell id="7d4XVodSia-sjYtWjZm2-17" value="&lt;font style=&quot;font-size: 16px;&quot;&gt;3&lt;/font&gt;" style="text;html=1;whiteSpace=wrap;strokeColor=none;fillColor=none;align=center;verticalAlign=middle;rounded=0;" vertex="1" parent="7d4XVodSia-sjYtWjZm2-1">
          <mxGeometry x="200" y="335" width="60" height="30" as="geometry" />
        </mxCell>
        <mxCell id="7d4XVodSia-sjYtWjZm2-18" value="&lt;font style=&quot;font-size: 16px;&quot;&gt;4&lt;/font&gt;" style="text;html=1;whiteSpace=wrap;strokeColor=none;fillColor=none;align=center;verticalAlign=middle;rounded=0;" vertex="1" parent="7d4XVodSia-sjYtWjZm2-1">
          <mxGeometry x="200" y="390" width="60" height="30" as="geometry" />
        </mxCell>
        <mxCell id="7d4XVodSia-sjYtWjZm2-19" value="&lt;font style=&quot;font-size: 16px;&quot;&gt;5&lt;/font&gt;" style="text;html=1;whiteSpace=wrap;strokeColor=none;fillColor=none;align=center;verticalAlign=middle;rounded=0;" vertex="1" parent="7d4XVodSia-sjYtWjZm2-1">
          <mxGeometry x="200" y="455" width="60" height="30" as="geometry" />
        </mxCell>
        <mxCell id="7d4XVodSia-sjYtWjZm2-20" value="&lt;font style=&quot;font-size: 16px;&quot;&gt;6&lt;/font&gt;" style="text;html=1;whiteSpace=wrap;strokeColor=none;fillColor=none;align=center;verticalAlign=middle;rounded=0;" vertex="1" parent="7d4XVodSia-sjYtWjZm2-1">
          <mxGeometry x="200" y="515" width="60" height="30" as="geometry" />
        </mxCell>
        <mxCell id="7d4XVodSia-sjYtWjZm2-22" value="8" style="rounded=0;whiteSpace=wrap;html=1;" vertex="1" parent="7d4XVodSia-sjYtWjZm2-1">
          <mxGeometry x="460" y="210" width="120" height="40" as="geometry" />
        </mxCell>
        <mxCell id="7d4XVodSia-sjYtWjZm2-23" value="4" style="rounded=0;whiteSpace=wrap;html=1;" vertex="1" parent="7d4XVodSia-sjYtWjZm2-1">
          <mxGeometry x="460" y="390" width="120" height="40" as="geometry" />
        </mxCell>
      </root>
    </mxGraphModel>
  </diagram>
</mxfile>
